<svg id="svg" version="1.1" xmlns="http://www.w3.org/2000/svg" xmlns:xlink="http://www.w3.org/1999/xlink" width="400" height="409.2444444444444" viewBox="0, 0, 400,409.2444444444444"><g id="svgg"><path id="path0" d="M209.244 46.409 C 179.973 49.104,156.805 60.022,139.851 79.111 C 122.003 99.208,114.397 113.094,118.497 118.100 L 119.838 119.737 116.931 124.135 C 111.324 132.617,110.560 134.296,107.028 145.877 C 104.494 154.185,100.771 173.255,99.186 186.044 C 98.673 190.184,98.641 190.198,97.106 186.932 C 92.565 177.270,77.146 172.842,68.359 178.676 C 67.331 179.359,66.489 180.060,66.489 180.234 C 66.489 180.407,65.598 181.702,64.509 183.111 C 52.820 198.240,59.208 218.113,76.267 219.682 L 78.756 219.911 78.997 223.822 C 79.830 237.318,83.560 245.723,94.697 259.196 C 104.743 271.349,114.029 276.746,135.289 282.789 C 138.418 283.679,142.418 284.877,144.178 285.451 C 153.513 288.501,155.473 288.825,173.511 290.299 C 177.324 290.611,183.164 291.172,186.489 291.546 C 189.813 291.920,193.618 292.329,194.944 292.454 C 196.883 292.637,197.452 292.832,197.847 293.452 C 198.418 294.348,201.094 302.634,201.450 304.610 C 202.642 311.229,204.650 316.520,206.291 317.369 C 207.235 317.857,207.297 317.984,206.849 318.515 C 202.407 323.779,198.604 329.005,197.144 331.853 C 196.759 332.603,196.167 333.367,195.829 333.551 C 195.490 333.734,194.653 335.041,193.968 336.453 C 193.283 337.866,192.167 340.062,191.489 341.333 C 188.666 346.621,189.620 350.481,194.222 352.391 C 195.416 352.887,195.417 352.913,194.295 356.023 C 193.797 357.403,192.904 360.462,192.311 362.822 C 191.717 365.181,191.020 367.442,190.761 367.846 C 188.454 371.454,186.162 387.325,187.492 390.488 C 189.163 394.463,191.716 392.808,192.070 387.519 C 192.752 377.325,193.799 371.315,194.548 373.290 C 195.042 374.591,204.482 378.019,209.357 378.669 C 210.983 378.885,212.513 379.139,212.757 379.233 C 213.262 379.427,217.256 378.454,217.630 378.046 C 220.081 375.373,221.511 373.427,221.511 372.766 C 221.511 372.319,221.653 371.865,221.827 371.758 C 222.001 371.650,222.228 371.041,222.331 370.403 C 222.596 368.759,224.360 361.562,224.706 360.711 C 224.865 360.320,225.264 359.040,225.592 357.867 C 225.919 356.693,226.313 355.413,226.466 355.022 C 226.619 354.631,227.036 353.351,227.393 352.178 C 227.749 351.004,228.156 349.884,228.297 349.689 C 228.438 349.493,228.742 348.624,228.974 347.757 C 230.151 343.355,235.758 332.896,239.026 329.004 C 241.569 325.975,248.184 320.711,249.446 320.711 C 249.566 320.711,251.210 319.778,253.099 318.638 C 254.988 317.498,257.590 315.959,258.881 315.217 C 264.205 312.160,261.149 308.233,255.644 311.057 C 238.194 320.009,224.845 331.467,219.649 341.954 C 217.936 345.412,218.046 345.366,216.789 343.127 C 214.091 338.324,207.465 333.238,203.822 333.175 C 201.847 333.141,202.590 331.915,210.021 322.948 C 214.974 316.972,221.201 312.785,230.222 309.367 C 240.708 305.395,244.099 304.328,248.432 303.637 C 254.299 302.701,256.178 301.841,256.178 300.089 C 256.178 298.917,256.103 298.838,254.898 298.737 C 253.668 298.634,253.596 298.551,253.052 296.604 C 252.368 294.154,252.377 294.143,255.367 293.837 C 259.484 293.416,259.584 293.573,260.438 301.833 C 261.117 308.397,262.164 310.085,264.487 308.357 C 265.704 307.452,265.840 305.451,265.067 299.863 C 264.420 295.179,264.431 295.128,265.822 296.294 C 280.017 308.189,308.069 315.412,317.976 309.724 C 327.208 304.423,328.528 296.817,322.515 283.557 C 319.907 277.805,313.800 268.808,309.552 264.462 C 307.963 262.836,307.891 263.151,310.311 261.167 C 318.560 254.408,328.638 242.539,333.617 233.719 C 339.384 223.502,347.216 207.980,348.567 204.089 C 354.008 188.416,356.793 163.477,354.363 152.178 C 352.114 141.719,351.057 138.755,347.005 131.556 C 346.290 130.284,344.613 127.164,343.278 124.622 C 336.152 111.047,325.958 97.191,317.511 89.599 C 315.262 87.578,309.822 82.388,305.422 78.065 C 294.222 67.062,289.649 63.929,275.022 57.240 C 256.754 48.886,230.071 44.492,209.244 46.409 M136.548 94.099 C 137.029 94.330,138.782 94.949,140.444 95.474 C 152.187 99.184,162.569 109.538,162.543 117.511 C 162.525 122.944,161.239 124.356,158.638 121.801 C 157.707 120.887,155.593 119.192,153.939 118.033 C 152.286 116.875,149.253 114.744,147.200 113.298 C 141.277 109.126,129.837 102.757,128.267 102.756 C 127.205 102.755,127.529 102.175,131.463 97.020 C 134.770 92.689,135.308 92.129,135.478 92.848 C 135.586 93.305,136.067 93.867,136.548 94.099 M128.459 118.805 C 129.282 119.224,132.676 121.249,136.000 123.305 C 139.324 125.361,145.244 128.958,149.156 131.296 C 165.548 141.099,182.508 154.290,202.489 172.777 C 210.509 180.197,233.454 203.867,241.063 212.571 L 243.660 215.541 243.235 218.971 C 240.870 238.050,241.208 239.784,246.334 234.888 C 247.746 233.539,247.905 233.472,248.329 234.044 C 248.990 234.937,250.547 234.838,251.133 233.867 C 257.792 222.836,263.220 219.360,274.667 218.794 C 283.474 218.359,289.519 222.538,293.332 231.696 C 302.416 253.518,278.129 281.279,254.779 275.762 C 250.411 274.729,248.924 274.736,247.757 275.793 C 245.802 277.561,249.206 280.471,254.360 281.438 C 255.098 281.577,255.761 281.870,255.833 282.089 C 255.906 282.309,256.130 283.135,256.331 283.925 C 256.536 284.725,257.409 286.193,258.305 287.243 C 260.371 289.664,260.356 289.713,257.511 289.725 C 256.191 289.731,254.311 289.983,253.333 290.286 C 252.356 290.589,251.427 290.838,251.269 290.841 C 250.871 290.846,249.454 287.549,248.699 284.858 C 247.747 281.466,245.104 280.447,244.411 283.205 C 243.799 285.645,247.579 297.223,249.372 298.400 C 250.065 298.855,248.855 299.366,247.068 299.372 C 243.008 299.386,229.361 303.900,220.610 308.124 C 218.061 309.355,214.894 311.170,213.572 312.158 C 210.677 314.322,210.976 314.311,210.686 312.267 C 209.832 306.242,205.931 293.188,203.898 289.553 C 201.987 286.135,200.761 285.460,195.813 285.103 C 193.630 284.945,189.279 284.501,186.144 284.116 C 183.009 283.731,179.164 283.326,177.600 283.215 C 159.475 281.932,155.389 281.350,147.556 278.936 C 144.133 277.881,139.253 276.426,136.711 275.703 C 120.370 271.054,110.915 266.333,104.455 259.596 C 91.349 245.929,86.018 235.793,85.434 223.438 L 85.230 219.115 87.779 217.776 C 91.118 216.021,93.454 213.451,95.415 209.374 C 96.691 206.721,97.272 205.942,99.037 204.520 C 103.445 200.969,104.044 199.188,105.760 184.533 C 107.229 171.993,109.993 156.090,112.034 148.444 C 115.000 137.329,115.547 135.998,120.790 127.150 C 126.922 116.800,126.155 117.634,128.459 118.805 M138.057 173.658 C 132.904 177.994,131.470 200.410,136.190 202.851 C 139.216 204.416,142.204 201.461,143.746 195.378 C 146.388 184.960,146.205 175.049,143.343 173.546 C 141.678 172.672,139.166 172.725,138.057 173.658 M82.840 182.254 C 91.391 184.793,95.032 191.405,92.763 200.276 C 90.586 208.789,88.054 212.414,83.208 213.954 C 81.083 214.629,74.996 214.743,74.204 214.123 C 73.970 213.939,73.245 213.688,72.593 213.564 C 71.942 213.441,71.000 213.018,70.501 212.625 C 70.002 212.233,69.461 211.911,69.299 211.911 C 66.774 211.911,63.414 203.934,63.832 198.933 C 64.970 185.322,72.101 179.065,82.840 182.254 M274.311 232.674 C 267.107 234.439,261.726 240.751,259.144 250.465 C 257.768 255.642,258.841 258.786,261.863 258.429 C 263.423 258.245,264.092 256.933,264.735 252.800 C 265.628 247.058,266.782 245.078,268.968 245.538 C 271.570 246.084,273.030 248.817,273.187 253.434 C 273.299 256.726,273.950 257.867,275.717 257.867 C 281.682 257.867,277.499 242.433,271.192 241.172 C 269.145 240.762,271.233 238.653,275.181 237.143 C 277.309 236.329,278.544 236.441,279.569 237.540 C 281.700 239.825,283.347 236.582,281.262 234.207 C 279.616 232.333,277.557 231.879,274.311 232.674 M134.597 243.372 C 129.000 249.746,120.597 253.235,113.911 251.960 C 110.490 251.308,108.717 252.424,110.018 254.409 C 113.683 260.003,133.279 254.487,138.336 246.437 C 141.493 241.412,138.483 238.944,134.597 243.372 M265.170 309.168 C 264.917 309.468,264.482 309.965,264.202 310.273 C 263.760 310.760,263.767 310.874,264.259 311.149 C 265.313 311.739,269.233 318.296,269.596 320.076 C 269.647 320.327,269.769 320.613,269.867 320.711 C 270.184 321.028,271.289 323.124,271.289 323.408 C 271.289 323.559,270.689 322.982,269.956 322.124 C 269.222 321.267,268.620 320.364,268.618 320.118 C 268.616 319.873,268.406 319.466,268.153 319.214 C 267.775 318.839,267.734 318.869,267.928 319.378 C 268.250 320.224,268.031 320.174,265.741 318.882 C 262.199 316.883,257.236 317.716,253.483 320.940 C 253.174 321.205,252.810 321.422,252.674 321.422 C 252.369 321.422,250.104 323.425,249.096 324.586 C 248.689 325.054,247.996 325.807,247.556 326.258 C 247.116 326.710,246.756 327.183,246.756 327.310 C 246.756 327.438,246.276 328.148,245.689 328.889 C 245.102 329.630,244.622 330.413,244.622 330.629 C 244.622 330.845,244.492 331.022,244.333 331.022 C 244.174 331.022,243.504 331.982,242.844 333.156 C 242.184 334.329,241.533 335.289,241.397 335.289 C 241.261 335.289,241.054 335.569,240.937 335.911 C 240.820 336.253,240.250 337.333,239.671 338.311 C 239.091 339.289,237.944 341.369,237.121 342.933 C 236.298 344.498,235.494 346.018,235.334 346.311 C 234.691 347.493,232.533 352.305,232.533 352.558 C 232.533 352.783,231.748 354.912,230.052 359.289 C 229.535 360.621,227.287 368.239,227.006 369.607 C 226.965 369.807,226.603 371.327,226.201 372.985 C 223.649 383.516,223.742 390.795,226.426 390.744 C 227.952 390.715,228.376 389.645,229.665 382.578 C 232.928 364.677,238.020 350.993,246.903 336.252 C 252.570 326.847,254.062 325.153,258.947 322.584 C 266.758 318.473,276.186 341.638,279.988 374.286 C 281.050 383.401,282.877 389.333,284.622 389.333 C 286.512 389.333,286.965 387.549,286.010 383.874 C 285.627 382.401,285.407 379.718,285.335 375.644 C 285.267 371.782,284.939 367.611,284.427 364.089 C 283.987 361.058,283.659 357.858,283.698 356.978 C 284.411 341.054,283.411 335.974,277.081 323.378 C 270.892 311.062,267.239 306.705,265.170 309.168 M226.734 340.000 C 226.631 340.244,225.877 341.964,225.059 343.822 C 223.148 348.164,219.630 358.760,218.474 363.657 C 217.088 369.529,216.223 372.173,215.611 372.408 C 213.711 373.137,209.149 372.185,208.851 370.998 C 208.247 368.592,208.880 355.380,209.604 355.274 C 210.719 355.110,214.860 351.578,215.644 350.122 C 216.414 348.693,216.999 348.576,217.181 349.814 C 217.608 352.717,219.867 351.847,221.567 348.124 C 223.199 344.552,226.132 339.556,226.598 339.556 C 226.775 339.556,226.836 339.756,226.734 340.000 M25.778 354.987 C 15.153 357.603,11.511 370.298,19.184 377.971 C 27.131 385.918,40.122 381.758,42.325 370.561 C 44.140 361.336,34.986 352.720,25.778 354.987 M199.582 355.623 C 199.520 356.554,197.775 359.671,197.481 359.377 C 197.070 358.967,198.594 354.475,199.107 354.582 C 199.442 354.652,199.621 355.045,199.582 355.623 M30.009 362.451 C 33.156 363.766,33.149 367.615,29.998 368.931 C 28.968 369.362,28.632 369.362,27.602 368.931 C 24.493 367.632,24.440 363.804,27.512 362.466 C 28.889 361.867,28.616 361.869,30.009 362.451 M32.723 370.317 C 34.466 371.219,35.517 374.066,34.282 374.540 C 33.973 374.658,31.506 374.756,28.800 374.756 C 22.368 374.756,21.934 374.531,23.293 371.902 C 24.357 369.845,29.982 368.900,32.723 370.317 M223.283 388.800 C 223.265 389.895,222.423 391.198,221.499 391.561 C 221.068 391.731,221.076 391.771,221.545 391.794 C 222.690 391.851,224.232 389.206,223.619 388.237 C 223.388 387.873,223.295 388.030,223.283 388.800 M218.929 390.290 C 218.003 390.532,218.557 391.118,219.665 391.070 C 220.275 391.044,220.395 390.969,219.996 390.865 C 219.651 390.775,219.460 390.554,219.572 390.373 C 219.684 390.192,219.726 390.063,219.665 390.086 C 219.605 390.108,219.274 390.200,218.929 390.290 M204.263 390.761 C 204.140 390.960,203.902 391.037,203.733 390.933 C 203.565 390.829,203.326 390.907,203.204 391.105 C 202.877 391.633,204.123 391.523,205.156 390.933 C 206.014 390.442,206.018 390.425,205.265 390.413 C 204.837 390.406,204.386 390.563,204.263 390.761 M206.792 391.170 C 206.893 391.333,207.276 391.467,207.644 391.467 C 208.012 391.467,208.396 391.333,208.497 391.170 C 208.597 391.007,208.214 390.874,207.644 390.874 C 207.075 390.874,206.691 391.007,206.792 391.170 M211.200 391.822 C 210.726 392.129,210.726 392.167,211.200 392.167 C 211.493 392.167,211.973 392.012,212.267 391.822 C 212.741 391.516,212.741 391.478,212.267 391.478 C 211.973 391.478,211.493 391.633,211.200 391.822 " stroke="none" fill="#1e234e" fill-rule="evenodd"></path><path id="path1" d="M0.000 204.622 L 0.000 409.244 141.314 409.244 L 282.628 409.244 283.092 408.277 C 284.030 406.321,281.628 406.410,333.333 406.410 C 385.039 406.410,382.637 406.321,383.575 408.277 L 384.039 409.244 392.019 409.244 L 400.000 409.244 400.000 204.622 L 400.000 0.000 200.000 0.000 L 0.000 0.000 0.000 204.622 M227.378 45.862 C 246.948 47.083,265.175 51.818,281.067 59.810 C 292.241 65.429,295.054 67.499,305.600 77.865 C 310.293 82.479,315.173 87.118,316.444 88.174 C 322.713 93.385,326.954 98.488,335.359 110.933 C 338.988 116.306,344.178 124.998,344.178 125.702 C 344.178 125.792,345.205 127.701,346.460 129.943 C 351.312 138.616,352.413 141.564,354.495 151.467 L 355.653 156.978 355.438 165.867 C 355.261 173.220,355.067 175.615,354.314 179.733 C 353.813 182.471,353.166 186.231,352.876 188.089 C 352.274 191.944,350.558 199.095,349.291 203.022 C 348.468 205.576,341.036 220.989,338.338 225.742 C 337.627 226.993,336.300 229.473,335.389 231.253 C 333.161 235.606,327.062 244.527,324.023 247.876 C 318.032 254.482,314.572 258.001,311.552 260.559 C 308.451 263.186,308.527 262.693,310.820 265.313 C 319.765 275.532,326.530 289.099,326.564 296.889 C 326.608 306.855,317.443 313.207,304.961 311.861 C 289.352 310.177,278.744 306.058,265.502 296.538 C 264.789 296.026,264.774 296.048,265.015 297.249 C 265.526 299.791,266.027 305.584,265.851 306.902 C 265.682 308.160,265.735 308.267,266.531 308.267 C 268.813 308.267,272.262 313.043,277.481 323.432 C 283.677 335.768,284.780 341.381,284.037 356.800 C 283.990 357.778,284.317 361.218,284.762 364.444 C 285.230 367.829,285.630 372.793,285.707 376.178 C 285.793 379.952,286.034 382.742,286.383 384.000 C 287.125 386.678,287.079 388.121,286.222 388.978 C 284.785 390.415,282.606 389.428,282.135 387.127 C 282.003 386.483,281.497 384.276,281.010 382.222 C 280.523 380.169,279.977 377.049,279.796 375.289 C 278.530 362.933,276.478 353.187,271.971 338.133 C 268.673 327.115,262.853 320.339,258.911 322.929 C 258.190 323.403,256.960 324.203,256.178 324.708 C 253.934 326.155,252.857 327.346,250.493 330.994 C 239.233 348.366,234.013 361.646,229.659 384.000 C 228.292 391.017,227.315 392.418,225.179 390.428 C 224.454 389.753,224.441 389.754,224.006 390.567 C 223.198 392.076,222.159 392.354,219.797 391.691 C 217.646 391.087,215.766 391.272,211.675 392.487 C 210.836 392.737,210.365 392.691,209.817 392.307 C 209.292 391.940,207.697 391.753,204.215 391.653 C 200.031 391.532,199.211 391.412,198.379 390.796 C 197.420 390.087,197.405 390.087,196.784 390.774 C 196.290 391.319,195.686 391.467,193.944 391.467 C 192.411 391.467,191.596 391.630,191.289 392.000 C 190.560 392.879,188.604 392.670,187.782 391.626 C 185.801 389.107,187.149 376.152,190.179 368.584 C 190.781 367.082,191.608 364.464,192.019 362.765 C 192.824 359.436,194.264 354.828,194.797 353.876 C 195.059 353.406,194.815 353.090,193.590 352.313 C 188.571 349.130,188.300 346.674,192.164 339.391 C 193.443 336.980,194.489 334.778,194.489 334.497 C 194.489 334.217,194.900 333.767,195.403 333.498 C 195.905 333.229,196.715 332.202,197.201 331.215 C 198.183 329.223,200.533 325.883,204.226 321.232 L 206.674 318.148 205.794 317.385 C 204.227 316.027,203.727 314.756,201.748 307.095 C 199.806 299.572,198.007 293.865,197.383 293.241 C 197.202 293.059,195.396 292.776,193.371 292.610 C 191.346 292.444,187.689 292.062,185.244 291.761 C 182.800 291.460,176.880 290.891,172.089 290.497 C 153.966 289.005,155.052 289.233,131.911 282.079 C 113.237 276.305,105.388 271.895,97.183 262.564 C 84.204 247.803,79.495 238.039,78.707 224.252 L 78.478 220.233 75.430 219.817 C 59.035 217.582,52.743 198.646,63.526 183.989 C 64.672 182.430,65.892 180.715,66.236 180.177 C 69.608 174.905,83.433 174.498,90.923 179.450 C 93.426 181.105,96.066 184.064,97.373 186.681 L 98.450 188.836 98.630 187.662 C 98.730 187.017,99.070 184.649,99.387 182.400 C 100.797 172.395,103.656 156.973,105.120 151.467 C 108.858 137.412,110.641 133.104,116.213 124.662 L 119.472 119.724 118.139 118.097 C 113.990 113.034,121.141 99.989,139.654 78.847 C 159.647 56.015,192.444 43.683,227.378 45.862 M132.879 95.691 C 131.778 97.132,130.214 99.162,129.404 100.202 C 128.593 101.242,127.986 102.134,128.054 102.184 C 128.122 102.233,128.978 102.568,129.956 102.928 C 130.933 103.288,132.330 103.957,133.060 104.414 C 133.789 104.871,134.452 105.244,134.533 105.244 C 135.018 105.244,144.016 110.686,146.844 112.690 C 148.702 114.006,151.662 116.054,153.422 117.241 C 155.182 118.428,157.479 120.213,158.527 121.208 C 160.551 123.131,160.790 123.167,161.566 121.666 C 163.570 117.791,162.082 111.967,157.952 107.518 C 152.762 101.929,141.683 95.000,137.843 94.943 C 137.030 94.931,135.762 94.265,135.263 93.589 C 134.954 93.170,134.503 93.568,132.879 95.691 M125.275 120.267 C 124.672 121.293,122.739 124.538,120.979 127.477 C 116.132 135.574,115.280 137.587,112.854 146.667 C 110.160 156.749,106.844 175.866,105.606 188.444 C 104.633 198.331,103.115 202.174,99.089 204.948 C 97.520 206.028,96.951 206.683,96.469 207.964 C 94.702 212.652,91.517 216.363,87.685 218.197 L 85.593 219.199 85.783 223.466 C 86.211 233.039,91.346 245.206,97.415 251.022 C 97.517 251.120,98.316 252.080,99.192 253.156 C 103.713 258.710,107.232 262.223,110.538 264.482 C 113.971 266.828,116.858 268.355,120.428 269.713 C 127.917 272.561,133.698 274.542,137.956 275.721 C 140.596 276.452,144.917 277.744,147.559 278.593 C 155.040 280.997,157.342 281.335,176.533 282.856 C 180.249 283.150,185.689 283.700,188.622 284.077 C 191.556 284.455,195.112 284.796,196.526 284.836 C 201.852 284.984,203.968 287.222,206.747 295.644 C 207.962 299.326,210.843 310.490,210.850 311.543 C 210.862 313.396,211.330 313.361,214.350 311.280 C 217.615 309.032,223.162 306.310,228.245 304.463 C 239.288 300.452,244.246 299.029,247.200 299.025 C 249.211 299.022,249.167 299.266,247.690 296.286 C 244.156 289.158,243.083 282.063,245.449 281.470 C 247.527 280.948,247.938 281.457,249.622 286.643 C 250.808 290.294,251.164 290.691,252.714 290.092 C 253.250 289.885,255.011 289.610,256.628 289.480 L 259.566 289.244 258.303 287.822 C 256.748 286.072,256.163 284.998,255.865 283.349 C 255.650 282.160,255.514 282.048,253.814 281.655 C 248.347 280.393,245.305 277.430,247.512 275.516 C 248.739 274.452,250.333 274.360,253.562 275.165 C 268.846 278.978,284.573 270.385,292.090 254.116 C 299.937 237.131,291.344 219.183,275.378 219.208 C 264.363 219.224,256.733 223.789,251.913 233.244 C 250.963 235.108,249.182 235.699,248.174 234.484 C 247.787 234.019,247.498 234.161,246.012 235.551 C 241.309 239.951,240.638 237.267,242.614 221.947 L 243.406 215.804 240.748 212.702 C 238.083 209.591,236.671 208.056,230.400 201.452 C 214.604 184.818,203.718 174.071,193.633 165.156 C 193.412 164.960,192.512 164.160,191.632 163.378 C 187.049 159.301,177.112 151.218,168.889 144.879 C 164.121 141.204,154.713 134.918,148.726 131.409 C 146.420 130.058,141.573 127.113,137.956 124.865 C 126.171 117.543,126.752 117.754,125.275 120.267 M143.548 173.378 C 147.928 176.117,145.632 197.519,140.423 202.509 C 138.886 203.982,136.450 203.925,135.073 202.384 C 133.515 200.640,133.203 198.890,133.223 192.000 C 133.267 177.188,137.483 169.584,143.548 173.378 M280.646 233.056 C 282.565 234.314,283.379 237.460,281.979 238.210 C 280.930 238.771,280.330 238.660,279.176 237.689 C 277.768 236.504,276.765 236.567,273.983 238.017 C 270.574 239.794,269.711 241.031,271.860 241.061 C 275.097 241.106,279.459 249.581,278.857 254.659 C 278.269 259.631,273.067 259.468,273.067 254.477 C 273.067 250.042,271.333 246.355,269.030 245.895 C 266.848 245.458,265.626 247.819,264.833 254.003 C 264.353 257.748,263.613 258.844,261.567 258.844 C 254.346 258.844,260.107 239.994,268.978 234.594 C 273.278 231.976,278.039 231.348,280.646 233.056 M188.344 238.128 C 188.262 238.669,188.193 238.311,188.191 237.333 C 188.188 236.356,188.255 235.913,188.339 236.351 C 188.424 236.788,188.426 237.588,188.344 238.128 M139.088 241.189 C 144.222 245.092,128.471 257.080,118.229 257.062 C 114.244 257.056,109.764 255.585,109.392 254.160 C 108.777 251.807,110.246 251.145,114.717 251.759 C 121.055 252.629,129.904 248.795,134.271 243.287 C 136.415 240.582,137.607 240.063,139.088 241.189 M254.400 294.284 C 252.875 294.622,252.876 294.620,253.329 296.415 C 253.710 297.923,253.889 298.148,254.793 298.254 C 256.189 298.417,256.711 298.921,256.711 300.107 C 256.711 302.007,254.881 302.880,248.889 303.840 C 240.351 305.207,223.923 311.728,217.055 316.476 C 214.202 318.448,212.382 320.387,206.761 327.443 C 202.869 332.328,202.597 332.800,203.670 332.800 C 207.210 332.800,213.251 337.296,216.710 342.505 L 218.047 344.520 219.034 342.434 C 223.652 332.668,234.082 322.990,249.621 314.050 C 257.760 309.369,258.100 309.245,260.485 310.108 C 261.750 310.565,264.533 310.006,264.533 309.295 C 264.533 309.089,264.216 309.030,263.805 309.161 C 262.981 309.423,261.550 308.626,261.001 307.599 C 260.729 307.090,259.556 297.492,259.556 295.772 C 259.556 294.454,256.985 293.712,254.400 294.284 M224.990 342.127 C 224.739 342.563,223.573 344.830,222.400 347.165 C 221.227 349.501,219.992 351.579,219.657 351.785 C 218.875 352.264,217.178 351.075,216.873 349.835 C 216.665 348.987,216.657 348.990,216.064 350.116 C 215.365 351.447,210.621 355.556,209.785 355.556 C 208.895 355.556,208.508 370.783,209.375 371.651 C 209.548 371.824,211.024 371.993,212.655 372.027 C 216.220 372.101,215.930 372.474,217.716 365.511 C 219.807 357.358,222.612 348.416,223.869 345.899 C 225.249 343.132,226.143 340.125,224.990 342.127 M33.118 355.202 C 40.376 357.491,44.297 365.245,41.954 372.674 C 37.970 385.304,19.630 385.304,15.646 372.674 C 12.203 361.757,22.202 351.758,33.118 355.202 M198.300 356.692 C 197.537 359.079,197.702 359.178,198.869 357.032 C 199.715 355.479,199.787 354.844,199.120 354.844 C 198.994 354.844,198.625 355.676,198.300 356.692 M27.152 362.727 C 24.945 363.795,25.012 367.650,27.256 368.672 C 29.650 369.763,32.089 368.258,32.089 365.689 C 32.089 363.110,29.530 361.575,27.152 362.727 M24.150 371.173 C 23.452 371.871,23.111 372.571,23.111 373.306 L 23.111 374.400 28.800 374.400 L 34.489 374.400 34.489 373.306 C 34.489 370.991,32.950 370.133,28.800 370.133 C 25.284 370.133,25.163 370.160,24.150 371.173 " stroke="none" fill="#fbf9f7" fill-rule="evenodd"></path><path id="path2" d="M72.395 182.401 C 63.842 185.741,60.813 203.387,67.584 210.433 C 68.365 211.246,69.137 211.911,69.299 211.911 C 69.461 211.911,70.002 212.233,70.501 212.625 C 71.000 213.018,71.942 213.441,72.593 213.564 C 73.245 213.688,73.970 213.939,74.204 214.123 C 74.996 214.743,81.083 214.629,83.208 213.954 C 92.480 211.008,96.814 193.502,90.027 186.413 C 86.061 182.270,77.638 180.353,72.395 182.401 " stroke="none" fill="#d31008" fill-rule="evenodd"></path><path id="path3" d="M284.610 406.736 C 283.805 407.065,283.244 407.687,282.911 408.622 C 282.700 409.213,285.252 409.244,333.311 409.244 C 389.322 409.244,385.276 409.409,382.861 407.223 C 382.087 406.523,286.295 406.049,284.610 406.736 " stroke="none" fill="#049cfc" fill-rule="evenodd"></path><path id="path4" d="M218.413 45.774 C 219.545 45.845,221.305 45.844,222.324 45.773 C 223.344 45.701,222.418 45.643,220.267 45.644 C 218.116 45.645,217.281 45.703,218.413 45.774 M210.756 46.124 C 211.391 46.203,212.431 46.203,213.067 46.124 C 213.702 46.045,213.182 45.980,211.911 45.980 C 210.640 45.980,210.120 46.045,210.756 46.124 M227.467 46.124 C 228.102 46.203,229.142 46.203,229.778 46.124 C 230.413 46.045,229.893 45.980,228.622 45.980 C 227.351 45.980,226.831 46.045,227.467 46.124 M207.027 46.477 C 207.568 46.559,208.368 46.557,208.805 46.473 C 209.242 46.388,208.800 46.321,207.822 46.324 C 206.844 46.327,206.487 46.396,207.027 46.477 M231.733 46.473 C 232.173 46.558,232.893 46.558,233.333 46.473 C 233.773 46.388,233.413 46.319,232.533 46.319 C 231.653 46.319,231.293 46.388,231.733 46.473 M203.822 46.823 C 204.164 46.912,204.724 46.912,205.067 46.823 C 205.409 46.733,205.129 46.660,204.444 46.660 C 203.760 46.660,203.480 46.733,203.822 46.823 M235.293 46.829 C 235.735 46.914,236.375 46.911,236.715 46.822 C 237.055 46.733,236.693 46.663,235.911 46.667 C 235.129 46.671,234.851 46.744,235.293 46.829 M201.333 47.178 C 201.676 47.268,202.236 47.268,202.578 47.178 C 202.920 47.089,202.640 47.016,201.956 47.016 C 201.271 47.016,200.991 47.089,201.333 47.178 M237.956 47.178 C 238.298 47.268,238.858 47.268,239.200 47.178 C 239.542 47.089,239.262 47.016,238.578 47.016 C 237.893 47.016,237.613 47.089,237.956 47.178 M197.511 47.644 C 196.033 48.021,197.488 48.037,199.289 47.665 C 200.485 47.418,200.541 47.371,199.644 47.372 C 199.058 47.372,198.098 47.495,197.511 47.644 M241.244 47.665 C 243.046 48.037,244.501 48.021,243.022 47.644 C 242.436 47.495,241.476 47.372,240.889 47.372 C 239.992 47.371,240.049 47.418,241.244 47.665 M248.889 49.019 C 250.216 49.456,252.773 49.831,251.911 49.462 C 251.520 49.294,250.480 49.060,249.600 48.942 C 248.547 48.800,248.304 48.826,248.889 49.019 M189.333 49.316 C 187.459 49.756,183.800 50.941,183.927 51.068 C 184.005 51.146,185.094 50.904,186.346 50.529 C 187.598 50.155,189.262 49.689,190.044 49.494 C 190.827 49.299,191.147 49.142,190.756 49.145 C 190.364 49.147,189.724 49.224,189.333 49.316 M255.111 50.441 C 255.502 50.612,256.382 50.854,257.067 50.978 C 257.921 51.133,258.088 51.106,257.600 50.892 C 257.209 50.721,256.329 50.480,255.644 50.355 C 254.790 50.201,254.623 50.227,255.111 50.441 M180.267 52.105 C 175.444 53.920,173.157 54.875,173.297 55.015 C 173.377 55.095,174.218 54.832,175.165 54.430 C 176.113 54.029,178.409 53.146,180.267 52.469 C 182.124 51.791,183.404 51.237,183.111 51.236 C 182.818 51.235,181.538 51.626,180.267 52.105 M263.450 52.823 C 265.494 53.481,267.229 53.956,267.305 53.880 C 267.464 53.722,260.537 51.536,260.049 51.591 C 259.876 51.610,261.406 52.165,263.450 52.823 M268.830 54.535 C 269.159 54.834,274.275 56.866,274.396 56.745 C 274.467 56.674,273.329 56.117,271.865 55.508 C 269.443 54.499,268.435 54.176,268.830 54.535 M169.333 56.528 C 168.111 57.093,167.111 57.641,167.111 57.745 C 167.111 57.984,167.509 57.826,170.133 56.544 C 172.893 55.196,172.239 55.183,169.333 56.528 M274.844 57.022 C 274.844 57.264,280.272 59.758,280.437 59.592 C 280.578 59.452,279.221 58.776,276.000 57.380 C 275.364 57.105,274.844 56.944,274.844 57.022 M161.600 60.633 C 150.466 66.782,140.646 76.322,127.941 93.333 C 120.712 103.013,117.268 109.071,117.349 111.967 C 117.358 112.278,117.736 111.387,118.190 109.987 C 119.598 105.641,122.229 101.377,129.015 92.444 C 141.326 76.240,150.565 67.279,161.131 61.297 C 164.755 59.245,165.669 58.661,165.244 58.668 C 165.196 58.669,163.556 59.553,161.600 60.633 M280.889 59.902 C 280.889 60.000,282.009 60.644,283.378 61.333 C 284.747 62.023,285.867 62.507,285.867 62.409 C 285.867 62.311,284.747 61.667,283.378 60.978 C 282.009 60.288,280.889 59.804,280.889 59.902 M286.222 62.695 C 286.222 62.788,287.782 63.789,289.689 64.919 C 294.934 68.027,296.735 69.531,305.422 78.061 C 309.822 82.381,315.182 87.497,317.333 89.428 C 319.484 91.360,322.019 93.749,322.965 94.737 C 324.477 96.317,324.557 96.362,323.623 95.111 C 322.442 93.530,319.935 91.113,316.444 88.192 C 315.173 87.129,310.373 82.557,305.778 78.034 C 297.866 70.246,295.018 67.749,291.733 65.719 C 289.214 64.163,286.222 62.521,286.222 62.695 M131.467 97.011 C 127.521 102.186,127.204 102.756,128.277 102.756 C 128.624 102.756,130.064 103.309,131.477 103.986 C 132.889 104.663,134.044 105.159,134.044 105.088 C 134.044 104.822,131.659 103.566,129.950 102.932 C 128.975 102.570,128.122 102.233,128.054 102.184 C 127.986 102.134,128.593 101.242,129.404 100.202 C 130.214 99.162,131.770 97.143,132.861 95.715 C 134.840 93.127,134.848 93.121,135.522 93.844 C 136.231 94.606,137.833 95.174,138.209 94.798 C 138.330 94.677,138.119 94.578,137.738 94.578 C 136.746 94.578,135.534 93.630,135.402 92.752 C 135.315 92.172,134.409 93.153,131.467 97.011 M141.936 96.319 C 150.937 99.889,160.254 108.206,161.964 114.199 C 162.423 115.807,162.478 115.881,162.331 114.697 C 161.563 108.490,145.319 94.794,138.903 94.943 C 138.675 94.948,140.040 95.568,141.936 96.319 M327.066 99.822 C 328.410 101.533,331.474 105.813,333.874 109.333 C 337.913 115.257,339.877 117.924,338.325 115.378 C 335.299 110.412,325.466 96.763,324.889 96.727 C 324.742 96.718,325.722 98.111,327.066 99.822 M134.400 105.379 C 134.400 105.453,136.440 106.672,138.933 108.087 C 141.427 109.502,145.147 111.845,147.200 113.294 C 149.253 114.742,152.286 116.875,153.939 118.033 C 155.593 119.192,157.707 120.887,158.638 121.801 C 160.831 123.955,162.596 122.895,162.448 119.512 C 162.416 118.772,162.354 118.849,162.153 119.881 C 161.930 121.027,160.922 123.022,160.566 123.022 C 160.495 123.022,159.578 122.207,158.529 121.210 C 157.480 120.214,155.182 118.428,153.422 117.241 C 151.662 116.054,148.702 114.006,146.844 112.690 C 142.805 109.828,134.400 104.890,134.400 105.379 M116.818 115.698 C 116.995 116.609,119.264 119.822,119.730 119.822 C 119.828 119.822,119.353 119.142,118.676 118.311 C 117.998 117.480,117.258 116.320,117.031 115.733 L 116.618 114.667 116.818 115.698 M339.315 117.410 C 340.530 119.377,343.822 125.547,343.822 125.858 C 343.822 126.035,343.980 126.278,344.174 126.397 C 344.939 126.870,340.310 117.968,339.275 116.978 C 338.817 116.539,338.824 116.615,339.315 117.410 M125.240 119.733 C 117.934 131.412,112.480 142.465,113.513 143.498 C 113.603 143.588,114.198 142.018,114.834 140.009 C 116.212 135.658,116.802 134.454,120.979 127.477 C 122.739 124.538,124.672 121.293,125.275 120.267 C 126.752 117.754,126.171 117.543,137.956 124.865 C 141.573 127.113,146.420 130.058,148.726 131.409 C 157.692 136.665,166.321 142.696,176.178 150.596 C 185.312 157.917,187.429 159.573,186.133 158.387 C 184.168 156.586,173.428 147.931,168.821 144.435 C 162.867 139.916,156.868 135.908,149.156 131.296 C 145.244 128.958,139.324 125.361,136.000 123.305 C 126.270 117.286,126.684 117.424,125.240 119.733 M116.401 124.356 C 112.975 129.596,111.570 131.955,111.762 132.147 C 111.903 132.288,113.422 129.930,113.422 129.569 C 113.422 129.477,114.673 127.526,116.202 125.234 C 119.463 120.346,119.567 120.178,119.321 120.178 C 119.218 120.178,117.904 122.058,116.401 124.356 M346.174 130.044 C 347.108 131.756,348.098 133.606,348.373 134.155 C 348.649 134.705,348.945 135.085,349.030 134.999 C 349.204 134.826,344.911 126.933,344.644 126.933 C 344.551 126.933,345.240 128.333,346.174 130.044 M110.747 133.917 C 109.205 137.540,105.557 148.891,105.629 149.838 C 105.646 150.049,106.053 148.942,106.536 147.378 C 108.533 140.897,110.352 135.561,111.002 134.277 C 111.383 133.524,111.612 132.827,111.512 132.727 C 111.412 132.627,111.068 133.163,110.747 133.917 M349.704 136.711 C 350.042 137.493,350.716 139.093,351.202 140.267 C 351.688 141.440,352.166 142.480,352.264 142.578 C 352.865 143.173,350.062 136.358,349.413 135.644 C 349.235 135.449,349.366 135.929,349.704 136.711 M352.416 143.467 C 352.410 143.858,352.543 144.498,352.711 144.889 C 353.100 145.795,353.100 144.860,352.711 143.644 C 352.482 142.930,352.424 142.895,352.416 143.467 M112.404 147.071 C 111.964 148.749,111.668 150.187,111.747 150.265 C 111.826 150.344,112.252 149.037,112.695 147.362 C 113.138 145.686,113.433 144.248,113.352 144.167 C 113.271 144.086,112.844 145.392,112.404 147.071 M353.138 146.311 C 353.138 146.702,353.266 147.422,353.422 147.911 C 353.648 148.615,353.707 148.652,353.707 148.089 C 353.707 147.698,353.579 146.978,353.422 146.489 C 353.197 145.785,353.138 145.748,353.138 146.311 M110.807 153.130 C 109.908 157.092,108.745 163.925,108.894 164.371 C 108.970 164.598,109.231 163.508,109.474 161.948 C 109.718 160.388,110.317 157.296,110.806 155.077 C 111.295 152.859,111.619 150.967,111.526 150.874 C 111.433 150.781,111.110 151.797,110.807 153.130 M354.204 151.289 C 354.204 151.680,354.332 152.400,354.489 152.889 C 354.714 153.593,354.774 153.630,354.774 153.067 C 354.774 152.676,354.645 151.956,354.489 151.467 C 354.263 150.763,354.204 150.726,354.204 151.289 M104.025 155.937 C 103.691 157.622,103.485 159.070,103.569 159.154 C 103.653 159.238,103.995 157.927,104.330 156.241 C 104.665 154.555,104.870 153.107,104.787 153.024 C 104.703 152.940,104.360 154.251,104.025 155.937 M355.113 156.622 C 355.215 158.187,355.357 159.533,355.427 159.615 C 355.664 159.889,355.474 155.922,355.199 154.844 C 355.044 154.239,355.007 155.009,355.113 156.622 M187.752 159.874 C 187.762 160.041,188.432 160.709,189.242 161.358 C 190.934 162.714,195.147 166.444,198.021 169.130 C 199.105 170.143,200.043 170.920,200.105 170.858 C 200.217 170.746,198.119 168.738,194.667 165.652 C 190.141 161.606,187.735 159.596,187.752 159.874 M102.594 163.038 C 102.458 163.945,102.419 164.760,102.508 164.849 C 102.597 164.938,102.781 164.269,102.917 163.362 C 103.053 162.455,103.092 161.640,103.003 161.551 C 102.914 161.462,102.730 162.131,102.594 163.038 M355.328 167.822 C 355.328 169.680,355.388 170.440,355.461 169.511 C 355.535 168.582,355.535 167.062,355.461 166.133 C 355.388 165.204,355.328 165.964,355.328 167.822 M107.941 168.919 C 107.807 169.926,107.769 170.821,107.857 170.909 C 107.944 170.996,108.129 170.247,108.267 169.244 C 108.405 168.242,108.442 167.346,108.351 167.254 C 108.259 167.162,108.074 167.911,107.941 168.919 M100.978 172.089 C 100.732 173.668,100.604 175.034,100.693 175.123 C 100.782 175.212,101.054 173.990,101.296 172.407 C 101.538 170.824,101.666 169.459,101.580 169.373 C 101.495 169.287,101.223 170.509,100.978 172.089 M200.533 171.156 C 200.533 171.274,201.773 172.532,203.289 173.952 C 212.257 182.353,237.188 208.240,241.813 213.954 C 242.643 214.979,243.392 215.749,243.477 215.664 C 243.673 215.468,239.693 210.910,234.303 205.156 C 232.013 202.711,229.619 200.151,228.982 199.467 C 220.577 190.438,200.533 170.491,200.533 171.156 M107.039 174.950 C 106.796 176.728,106.670 178.255,106.758 178.343 C 106.847 178.432,107.118 177.050,107.361 175.272 C 107.604 173.494,107.730 171.967,107.642 171.879 C 107.553 171.790,107.282 173.172,107.039 174.950 M354.946 173.689 C 354.949 174.667,355.018 175.024,355.100 174.484 C 355.181 173.944,355.179 173.144,355.095 172.706 C 355.010 172.269,354.943 172.711,354.946 173.689 M137.805 173.535 C 136.625 174.571,134.739 177.911,134.770 178.911 C 134.778 179.168,135.157 178.514,135.613 177.457 C 136.730 174.868,138.092 173.240,139.476 172.840 C 140.345 172.589,140.432 172.501,139.835 172.477 C 139.401 172.459,138.488 172.935,137.805 173.535 M142.015 173.150 C 143.462 173.429,144.095 174.013,144.912 175.822 C 145.178 176.409,145.401 176.681,145.408 176.427 C 145.458 174.770,143.396 172.776,141.699 172.841 C 140.725 172.878,140.756 172.907,142.015 173.150 M100.089 177.422 C 99.951 178.425,99.913 179.321,100.005 179.412 C 100.097 179.504,100.281 178.755,100.415 177.748 C 100.548 176.741,100.586 175.845,100.499 175.758 C 100.411 175.670,100.227 176.419,100.089 177.422 M354.571 176.711 C 354.571 177.396,354.645 177.676,354.734 177.333 C 354.823 176.991,354.823 176.431,354.734 176.089 C 354.645 175.747,354.571 176.027,354.571 176.711 M74.222 176.251 C 74.662 176.336,75.382 176.336,75.822 176.251 C 76.262 176.166,75.902 176.097,75.022 176.097 C 74.142 176.097,73.782 176.166,74.222 176.251 M78.667 176.259 C 79.400 176.336,80.600 176.336,81.333 176.259 C 82.067 176.182,81.467 176.120,80.000 176.120 C 78.533 176.120,77.933 176.182,78.667 176.259 M71.644 176.711 C 71.196 176.904,71.130 177.017,71.467 177.017 C 71.760 177.017,72.320 176.879,72.711 176.711 C 73.159 176.519,73.225 176.406,72.889 176.406 C 72.596 176.406,72.036 176.543,71.644 176.711 M68.186 178.332 C 67.457 178.809,66.584 179.640,66.245 180.178 C 65.906 180.716,64.930 182.116,64.076 183.289 C 63.090 184.644,62.931 184.968,63.640 184.178 C 64.254 183.493,65.252 182.176,65.857 181.250 C 66.462 180.324,67.692 179.086,68.590 178.498 C 69.488 177.911,70.062 177.438,69.867 177.447 C 69.671 177.457,68.915 177.855,68.186 178.332 M89.054 178.728 C 92.453 180.471,95.554 183.631,97.106 186.932 C 98.389 189.663,98.870 190.116,98.803 188.533 C 98.778 187.926,98.700 187.792,98.599 188.181 C 98.486 188.611,98.092 188.112,97.336 186.581 C 95.927 183.730,91.949 179.741,89.177 178.400 C 86.239 176.979,86.143 177.234,89.054 178.728 M145.505 178.489 C 145.505 179.173,145.578 179.453,145.667 179.111 C 145.757 178.769,145.757 178.209,145.667 177.867 C 145.578 177.524,145.505 177.804,145.505 178.489 M106.394 179.911 C 106.394 180.596,106.467 180.876,106.556 180.533 C 106.646 180.191,106.646 179.631,106.556 179.289 C 106.467 178.947,106.394 179.227,106.394 179.911 M99.638 180.978 C 99.638 181.662,99.711 181.942,99.801 181.600 C 99.890 181.258,99.890 180.698,99.801 180.356 C 99.711 180.013,99.638 180.293,99.638 180.978 M353.616 181.883 C 353.480 182.790,353.442 183.605,353.530 183.693 C 353.619 183.782,353.803 183.113,353.939 182.206 C 354.075 181.299,354.114 180.484,354.025 180.395 C 353.936 180.307,353.752 180.976,353.616 181.883 M106.038 182.400 C 106.038 183.084,106.111 183.364,106.201 183.022 C 106.290 182.680,106.290 182.120,106.201 181.778 C 106.111 181.436,106.038 181.716,106.038 182.400 M99.010 184.699 C 98.872 185.995,98.835 187.131,98.929 187.225 C 99.023 187.319,99.209 186.332,99.342 185.031 C 99.475 183.730,99.512 182.594,99.424 182.505 C 99.335 182.417,99.149 183.404,99.010 184.699 M105.697 185.244 C 105.697 186.124,105.766 186.484,105.851 186.044 C 105.936 185.604,105.936 184.884,105.851 184.444 C 105.766 184.004,105.697 184.364,105.697 185.244 M145.519 185.600 C 145.519 186.480,145.588 186.840,145.673 186.400 C 145.758 185.960,145.758 185.240,145.673 184.800 C 145.588 184.360,145.519 184.720,145.519 185.600 M133.423 186.133 C 133.427 186.916,133.500 187.194,133.585 186.751 C 133.670 186.309,133.667 185.669,133.578 185.329 C 133.489 184.989,133.419 185.351,133.423 186.133 M61.785 186.400 C 61.079 187.486,60.190 189.497,59.938 190.578 L 59.730 191.467 60.123 190.578 C 60.339 190.089,60.974 188.769,61.534 187.644 C 62.585 185.533,62.692 185.002,61.785 186.400 M105.113 189.825 C 104.976 191.464,104.935 192.876,105.022 192.962 C 105.244 193.185,105.712 187.890,105.520 187.317 C 105.433 187.057,105.250 188.186,105.113 189.825 M144.604 191.204 C 143.632 196.323,143.608 196.521,144.147 194.891 C 144.733 193.120,145.570 188.474,145.344 188.248 C 145.262 188.165,144.929 189.496,144.604 191.204 M352.401 188.800 C 352.372 189.289,351.935 191.449,351.429 193.600 C 350.252 198.604,350.077 199.583,350.543 198.533 C 351.140 197.185,352.754 189.453,352.601 188.671 C 352.471 188.004,352.446 188.020,352.401 188.800 M133.102 192.356 C 133.102 194.018,133.163 194.698,133.238 193.867 C 133.313 193.036,133.313 191.676,133.238 190.844 C 133.163 190.013,133.102 190.693,133.102 192.356 M59.086 193.585 C 58.855 194.734,58.682 196.007,58.700 196.415 C 58.718 196.822,58.957 196.036,59.230 194.667 C 59.504 193.298,59.677 192.024,59.616 191.837 C 59.556 191.649,59.317 192.436,59.086 193.585 M104.058 196.622 C 103.440 199.888,101.026 203.354,97.978 205.351 C 97.418 205.718,96.432 207.252,95.476 209.243 C 93.467 213.429,91.155 216.002,87.831 217.748 L 85.333 219.061 85.407 222.330 L 85.481 225.600 85.597 222.370 L 85.714 219.141 87.746 218.168 C 91.515 216.363,94.713 212.622,96.469 207.964 C 96.951 206.683,97.520 206.028,99.089 204.948 C 101.840 203.053,105.040 197.596,104.442 195.821 C 104.360 195.577,104.187 195.938,104.058 196.622 M143.214 197.165 C 143.104 197.551,142.906 198.187,142.773 198.578 C 142.641 198.969,142.793 198.839,143.111 198.290 C 143.429 197.740,143.627 197.104,143.552 196.877 C 143.476 196.649,143.324 196.779,143.214 197.165 M58.370 200.558 C 58.249 207.588,61.859 214.188,67.336 216.949 C 69.227 217.903,68.918 217.594,66.264 215.879 C 61.519 212.812,59.090 208.128,58.675 201.244 L 58.428 197.156 58.370 200.558 M133.697 199.757 C 133.677 200.937,135.586 203.387,136.506 203.364 C 136.836 203.355,136.651 203.124,136.060 202.803 C 135.503 202.502,134.751 201.594,134.378 200.773 C 134.008 199.957,133.701 199.499,133.697 199.757 M141.223 201.078 C 140.598 201.965,139.727 202.835,139.288 203.012 C 138.788 203.212,138.697 203.341,139.045 203.355 C 139.643 203.379,141.037 202.024,142.039 200.444 C 143.035 198.875,142.463 199.319,141.223 201.078 M349.027 202.595 C 348.481 204.297,347.954 205.929,347.856 206.222 C 347.699 206.696,347.721 206.696,348.054 206.222 C 348.532 205.543,350.363 199.845,350.167 199.649 C 350.086 199.568,349.573 200.894,349.027 202.595 M344.077 213.883 C 342.570 216.905,341.415 219.378,341.510 219.378 C 341.745 219.378,347.098 208.668,346.941 208.512 C 346.873 208.444,345.584 210.861,344.077 213.883 M70.933 218.686 C 71.716 219.056,72.596 219.356,72.889 219.352 C 73.182 219.348,72.622 219.032,71.644 218.650 C 69.419 217.781,69.060 217.799,70.933 218.686 M242.927 219.733 C 242.927 220.418,243.000 220.698,243.090 220.356 C 243.179 220.013,243.179 219.453,243.090 219.111 C 243.000 218.769,242.927 219.049,242.927 219.733 M276.267 219.006 C 278.516 219.151,280.676 219.386,281.067 219.528 L 281.778 219.787 281.067 219.325 C 280.604 219.024,278.926 218.842,276.267 218.803 L 272.178 218.743 276.267 219.006 M77.138 219.985 L 78.549 220.128 78.676 222.776 L 78.804 225.425 78.780 222.668 L 78.756 219.911 77.242 219.876 L 75.728 219.841 77.138 219.985 M283.688 220.761 C 288.746 223.650,292.363 228.584,294.253 235.174 C 294.663 236.603,294.738 236.711,294.615 235.692 C 293.900 229.758,287.572 221.515,282.489 219.897 C 282.098 219.772,282.637 220.161,283.688 220.761 M340.256 221.430 C 339.183 223.536,338.831 224.356,338.998 224.356 C 339.216 224.356,341.393 220.030,341.248 219.885 C 341.173 219.810,340.727 220.505,340.256 221.430 M261.867 221.930 C 258.397 223.713,254.946 227.550,251.133 233.867 C 250.547 234.838,248.990 234.937,248.329 234.044 C 247.905 233.472,247.746 233.539,246.334 234.888 C 245.490 235.694,244.480 236.529,244.089 236.744 C 243.698 236.958,243.585 237.139,243.837 237.145 C 244.090 237.151,245.069 236.434,246.012 235.551 C 247.498 234.161,247.787 234.019,248.174 234.484 C 249.411 235.975,250.756 235.214,252.722 231.912 C 255.653 226.989,258.369 224.234,262.474 222.022 C 265.266 220.517,264.765 220.441,261.867 221.930 M242.571 222.578 C 242.571 223.262,242.645 223.542,242.734 223.200 C 242.823 222.858,242.823 222.298,242.734 221.956 C 242.645 221.613,242.571 221.893,242.571 222.578 M242.223 225.600 C 242.227 226.382,242.300 226.660,242.385 226.218 C 242.470 225.776,242.467 225.136,242.378 224.796 C 242.289 224.456,242.219 224.818,242.223 225.600 M336.866 227.822 C 332.506 235.996,328.036 242.762,323.830 247.556 C 322.672 248.876,321.896 249.956,322.106 249.956 C 322.317 249.956,322.491 249.836,322.493 249.689 C 322.495 249.542,323.128 248.762,323.900 247.955 C 326.571 245.163,333.016 235.869,335.089 231.822 C 335.840 230.356,337.006 228.156,337.680 226.933 C 338.354 225.711,338.820 224.711,338.716 224.711 C 338.612 224.711,337.779 226.111,336.866 227.822 M78.975 227.230 C 78.999 228.093,79.144 229.280,79.298 229.867 C 79.469 230.514,79.503 229.954,79.385 228.444 C 79.165 225.618,78.912 224.868,78.975 227.230 M85.742 226.780 C 85.617 229.554,88.126 237.382,90.529 241.714 C 94.328 248.563,104.664 260.783,109.696 264.374 C 113.513 267.098,122.320 271.398,122.898 270.821 C 122.979 270.740,122.040 270.305,120.812 269.855 C 115.187 267.795,108.806 263.813,105.560 260.338 C 102.538 257.102,100.906 255.261,99.192 253.156 C 98.316 252.080,97.517 251.120,97.415 251.022 C 92.402 246.218,86.908 234.569,85.928 226.667 L 85.795 225.600 85.742 226.780 M241.879 228.800 C 241.882 229.778,241.951 230.136,242.033 229.595 C 242.115 229.055,242.112 228.255,242.028 227.817 C 241.944 227.380,241.877 227.822,241.879 228.800 M241.512 232.711 C 241.516 233.493,241.589 233.771,241.674 233.329 C 241.759 232.887,241.756 232.247,241.667 231.907 C 241.578 231.567,241.508 231.929,241.512 232.711 M273.600 232.550 C 273.104 232.774,273.320 232.806,274.311 232.656 C 275.093 232.536,275.800 232.380,275.881 232.308 C 276.187 232.039,274.283 232.241,273.600 232.550 M279.033 232.624 C 280.563 233.114,282.311 235.121,282.311 236.386 C 282.311 238.195,280.709 238.851,279.562 237.511 C 279.227 237.120,278.789 236.805,278.588 236.811 C 278.011 236.829,280.155 238.578,280.754 238.578 C 282.573 238.578,283.219 236.765,282.142 234.683 C 281.548 233.534,279.540 232.160,278.536 232.214 C 278.136 232.236,278.336 232.401,279.033 232.624 M270.245 233.880 C 267.835 235.083,264.892 237.740,263.280 240.168 C 261.833 242.347,259.460 247.358,259.631 247.871 C 259.697 248.068,260.270 246.957,260.906 245.402 C 263.113 240.004,266.397 236.203,270.764 233.993 C 271.933 233.401,272.729 232.917,272.533 232.916 C 272.338 232.916,271.308 233.349,270.245 233.880 M80.572 235.733 C 80.694 236.418,80.937 237.218,81.112 237.511 C 81.491 238.142,81.127 236.299,80.656 235.200 C 80.451 234.720,80.424 234.894,80.572 235.733 M241.445 235.779 C 241.416 236.510,242.320 237.281,242.921 237.039 C 243.204 236.926,243.136 236.845,242.744 236.828 C 242.396 236.813,241.966 236.440,241.789 236.000 C 241.571 235.459,241.460 235.387,241.445 235.779 M188.191 237.333 C 188.193 238.311,188.262 238.669,188.344 238.128 C 188.426 237.588,188.424 236.788,188.339 236.351 C 188.255 235.913,188.188 236.356,188.191 237.333 M273.067 238.101 C 271.005 239.310,270.222 239.994,270.222 240.588 C 270.222 240.851,270.502 241.064,270.844 241.061 C 271.348 241.057,271.371 240.995,270.965 240.738 C 270.295 240.314,270.855 239.756,273.435 238.276 C 274.504 237.663,275.218 237.162,275.022 237.162 C 274.827 237.162,273.947 237.585,273.067 238.101 M294.838 238.222 C 294.838 238.907,294.911 239.187,295.001 238.844 C 295.090 238.502,295.090 237.942,295.001 237.600 C 294.911 237.258,294.838 237.538,294.838 238.222 M81.637 238.933 C 83.656 247.164,98.226 265.759,107.393 271.806 C 111.299 274.382,123.730 279.944,124.303 279.371 C 124.377 279.297,122.399 278.468,119.908 277.529 C 110.915 274.139,106.205 271.254,100.777 265.811 C 93.059 258.071,86.930 249.829,83.625 242.746 C 82.874 241.138,82.071 239.422,81.839 238.933 L 81.418 238.044 81.637 238.933 M295.218 242.133 C 295.218 243.209,295.284 243.649,295.366 243.111 C 295.447 242.573,295.447 241.693,295.366 241.156 C 295.284 240.618,295.218 241.058,295.218 242.133 M136.139 241.156 C 135.847 241.400,135.006 242.359,134.271 243.287 C 132.650 245.332,129.325 247.754,125.288 249.831 C 123.635 250.682,122.454 251.378,122.664 251.378 C 124.404 251.378,132.103 246.212,134.597 243.372 C 136.725 240.947,138.045 240.422,139.029 241.609 C 139.277 241.907,139.565 242.065,139.669 241.960 C 140.481 241.149,137.074 240.372,136.139 241.156 M272.533 241.741 C 275.042 243.322,276.485 245.233,277.916 248.869 C 278.408 250.121,278.412 250.122,278.248 249.030 C 277.860 246.438,273.547 241.062,271.860 241.068 C 271.644 241.069,271.947 241.372,272.533 241.741 M139.619 243.556 C 138.463 249.211,127.520 256.045,118.578 256.696 L 115.022 256.955 117.874 257.011 C 126.576 257.181,141.087 247.941,140.004 242.918 C 139.930 242.572,139.764 242.846,139.619 243.556 M294.626 246.626 C 294.501 247.544,294.466 248.362,294.550 248.446 C 294.634 248.530,294.813 247.856,294.949 246.949 C 295.086 246.043,295.120 245.224,295.026 245.130 C 294.932 245.035,294.752 245.709,294.626 246.626 M267.062 246.084 C 266.149 246.934,265.231 248.866,265.269 249.855 C 265.283 250.204,265.518 249.761,265.792 248.871 C 267.181 244.365,271.211 245.210,272.583 250.295 C 272.869 251.358,273.024 251.607,273.035 251.022 C 273.098 247.563,269.059 244.223,267.062 246.084 M259.087 249.025 C 258.954 249.373,258.855 249.925,258.867 250.251 C 258.882 250.644,259.005 250.555,259.233 249.986 C 259.421 249.514,259.521 248.962,259.453 248.760 C 259.386 248.557,259.221 248.677,259.087 249.025 M293.831 249.825 C 291.273 260.341,281.257 270.636,269.689 274.641 C 268.320 275.115,267.387 275.515,267.616 275.529 C 270.623 275.720,280.452 270.298,284.380 266.281 C 288.108 262.468,295.269 249.995,294.291 249.017 C 294.174 248.900,293.967 249.264,293.831 249.825 M318.933 252.926 C 316.849 255.218,311.891 259.904,309.178 262.147 L 308.135 263.010 309.486 264.394 C 311.925 266.890,313.825 269.281,316.095 272.711 C 318.509 276.359,319.551 277.667,318.220 275.378 C 316.351 272.164,313.185 267.935,309.925 264.295 C 308.643 262.864,308.533 263.117,311.552 260.554 C 312.972 259.349,314.999 257.471,316.056 256.381 C 321.274 251.006,321.909 250.314,321.589 250.349 C 321.399 250.369,320.204 251.529,318.933 252.926 M110.053 251.861 C 109.166 252.509,109.179 254.429,110.074 255.106 C 111.156 255.925,111.339 255.727,110.384 254.772 C 109.904 254.292,109.511 253.724,109.511 253.511 C 109.511 253.298,109.904 252.731,110.384 252.251 C 111.325 251.309,111.127 251.075,110.053 251.861 M120.178 251.733 C 119.463 251.962,119.428 252.020,120.000 252.028 C 120.391 252.034,121.031 251.901,121.422 251.733 C 122.328 251.344,121.393 251.344,120.178 251.733 M114.667 252.084 C 115.745 252.363,119.355 252.553,119.081 252.316 C 119.000 252.245,117.733 252.102,116.267 251.997 C 114.704 251.886,114.042 251.922,114.667 252.084 M264.616 253.867 C 264.616 254.551,264.689 254.831,264.778 254.489 C 264.868 254.147,264.868 253.587,264.778 253.244 C 264.689 252.902,264.616 253.182,264.616 253.867 M278.400 255.227 C 278.400 256.210,277.385 257.473,276.267 257.882 C 275.853 258.033,275.877 258.084,276.373 258.105 C 277.318 258.147,278.756 256.417,278.756 255.237 C 278.756 254.679,278.676 254.222,278.578 254.222 C 278.480 254.222,278.400 254.674,278.400 255.227 M264.178 255.952 C 264.178 258.920,259.717 259.361,258.853 256.478 C 258.586 255.585,258.546 255.562,258.519 256.283 C 258.472 257.538,259.999 258.844,261.511 258.844 C 263.051 258.844,264.533 257.544,264.533 256.194 C 264.533 255.696,264.453 255.289,264.356 255.289 C 264.258 255.289,264.178 255.587,264.178 255.952 M273.067 256.276 C 273.067 256.934,274.406 258.136,275.111 258.111 C 275.608 258.093,275.580 258.027,274.971 257.781 C 274.552 257.612,273.952 257.106,273.638 256.658 C 273.324 256.209,273.067 256.037,273.067 256.276 M123.391 271.050 C 123.668 271.348,133.317 274.847,133.808 274.828 C 134.036 274.819,132.063 274.017,129.425 273.047 C 123.989 271.047,123.121 270.760,123.391 271.050 M248.600 274.864 C 244.616 276.462,247.475 280.192,253.803 281.653 C 254.879 281.901,255.685 282.300,255.787 282.635 C 255.900 283.007,255.936 282.965,255.890 282.512 C 255.840 282.007,255.364 281.707,254.103 281.386 C 246.960 279.563,244.662 275.921,249.995 274.873 C 251.218 274.633,251.325 274.563,250.489 274.550 C 249.902 274.541,249.052 274.682,248.600 274.864 M134.933 275.200 C 135.324 275.368,135.884 275.506,136.178 275.506 C 136.514 275.506,136.448 275.393,136.000 275.200 C 135.609 275.032,135.049 274.894,134.756 274.894 C 134.419 274.894,134.485 275.007,134.933 275.200 M253.333 275.403 C 254.311 275.675,255.271 275.884,255.467 275.867 C 256.068 275.815,253.024 274.899,252.267 274.904 C 251.876 274.906,252.356 275.131,253.333 275.403 M138.844 276.271 C 140.018 276.654,141.138 276.959,141.333 276.948 C 141.904 276.915,139.292 276.021,137.943 275.787 C 137.265 275.670,137.671 275.887,138.844 276.271 M262.933 275.975 C 261.760 276.158,259.680 276.232,258.311 276.140 C 256.148 275.994,256.008 276.018,257.244 276.325 C 258.703 276.686,263.379 276.465,265.600 275.929 C 267.324 275.513,265.718 275.541,262.933 275.975 M145.956 278.421 C 148.302 279.183,150.382 279.798,150.578 279.787 C 150.773 279.777,149.099 279.140,146.856 278.373 C 144.614 277.606,142.534 276.991,142.234 277.006 C 141.934 277.022,143.609 277.659,145.956 278.421 M319.823 278.400 C 322.909 283.604,325.842 291.638,326.396 296.411 L 326.720 299.200 326.573 296.356 C 326.326 291.595,322.432 281.175,319.597 277.689 C 319.146 277.134,319.231 277.402,319.823 278.400 M125.156 279.762 C 125.449 279.943,126.089 280.199,126.578 280.330 C 127.196 280.495,127.304 280.467,126.933 280.238 C 126.640 280.057,126.000 279.801,125.511 279.670 C 124.893 279.505,124.785 279.533,125.156 279.762 M152.178 280.297 C 153.441 280.793,157.126 281.459,156.800 281.133 C 156.702 281.035,155.742 280.784,154.667 280.576 C 153.591 280.367,152.311 280.109,151.822 280.002 C 151.333 279.895,151.493 280.028,152.178 280.297 M159.289 281.623 C 160.364 281.782,162.764 281.995,164.622 282.095 L 168.000 282.277 163.733 281.787 C 159.143 281.260,156.075 281.147,159.289 281.623 M245.333 281.504 C 244.776 281.716,244.281 282.299,244.272 282.756 C 244.269 282.902,244.587 282.702,244.978 282.311 C 246.224 281.065,247.932 281.823,248.381 283.823 C 248.523 284.458,248.707 284.785,248.789 284.549 C 249.045 283.810,247.810 281.680,246.998 281.462 C 246.115 281.225,246.061 281.227,245.333 281.504 M130.878 281.752 C 131.195 282.069,142.330 285.166,142.509 284.987 C 142.612 284.884,142.597 284.800,142.476 284.800 C 142.354 284.800,139.769 284.080,136.730 283.200 C 131.303 281.628,130.574 281.448,130.878 281.752 M168.978 282.566 C 169.516 282.647,170.396 282.647,170.933 282.566 C 171.471 282.484,171.031 282.418,169.956 282.418 C 168.880 282.418,168.440 282.484,168.978 282.566 M173.422 282.924 C 174.058 283.003,175.098 283.003,175.733 282.924 C 176.369 282.845,175.849 282.780,174.578 282.780 C 173.307 282.780,172.787 282.845,173.422 282.924 M178.222 283.277 C 178.760 283.358,179.640 283.358,180.178 283.277 C 180.716 283.195,180.276 283.129,179.200 283.129 C 178.124 283.129,177.684 283.195,178.222 283.277 M182.311 283.629 C 182.751 283.713,183.471 283.713,183.911 283.629 C 184.351 283.544,183.991 283.475,183.111 283.475 C 182.231 283.475,181.871 283.544,182.311 283.629 M256.033 283.911 C 255.998 284.729,256.877 286.212,258.458 288.000 L 259.558 289.244 258.579 289.469 C 257.616 289.690,257.619 289.694,258.756 289.736 C 260.274 289.791,260.218 289.485,258.301 287.238 C 257.415 286.200,256.549 284.867,256.377 284.276 C 256.165 283.548,256.054 283.430,256.033 283.911 M185.515 283.985 C 185.958 284.070,186.598 284.067,186.937 283.978 C 187.277 283.889,186.916 283.819,186.133 283.823 C 185.351 283.827,185.073 283.900,185.515 283.985 M188.178 284.334 C 188.520 284.423,189.080 284.423,189.422 284.334 C 189.764 284.245,189.484 284.171,188.800 284.171 C 188.116 284.171,187.836 284.245,188.178 284.334 M190.844 284.695 C 191.284 284.780,192.004 284.780,192.444 284.695 C 192.884 284.611,192.524 284.541,191.644 284.541 C 190.764 284.541,190.404 284.611,190.844 284.695 M194.748 285.057 C 195.379 285.135,196.499 285.136,197.237 285.059 C 197.974 284.983,197.458 284.918,196.089 284.917 C 194.720 284.915,194.116 284.978,194.748 285.057 M198.781 284.937 C 198.893 285.053,199.693 285.520,200.559 285.975 C 201.558 286.499,202.555 287.441,203.289 288.552 C 203.924 289.515,204.444 290.129,204.444 289.916 C 204.444 289.462,202.668 286.951,201.899 286.319 C 201.343 285.862,198.427 284.569,198.781 284.937 M144.683 285.892 C 145.742 286.268,146.671 286.514,146.746 286.439 C 146.912 286.273,143.674 285.145,143.137 285.182 C 142.927 285.196,143.623 285.515,144.683 285.892 M248.932 285.511 C 248.926 285.804,249.141 286.524,249.409 287.111 C 250.038 288.484,250.047 287.846,249.422 286.222 C 249.159 285.538,248.938 285.218,248.932 285.511 M148.267 287.111 C 148.951 287.375,149.831 287.592,150.222 287.594 C 150.613 287.595,150.213 287.370,149.333 287.093 C 147.324 286.460,146.607 286.472,148.267 287.111 M244.683 287.822 C 244.677 288.213,244.810 288.853,244.978 289.244 C 245.367 290.150,245.367 289.216,244.978 288.000 C 244.749 287.285,244.691 287.251,244.683 287.822 M154.844 288.693 C 155.941 288.991,158.457 289.171,158.193 288.933 C 158.111 288.860,157.084 288.711,155.911 288.602 C 154.508 288.471,154.143 288.503,154.844 288.693 M159.383 289.322 C 159.923 289.404,160.723 289.401,161.160 289.317 C 161.598 289.233,161.156 289.166,160.178 289.168 C 159.200 289.171,158.842 289.240,159.383 289.322 M163.911 289.773 C 165.975 290.079,169.466 290.227,169.215 289.998 C 169.133 289.924,167.467 289.777,165.511 289.673 C 162.941 289.535,162.498 289.563,163.911 289.773 M255.378 289.667 C 255.720 289.757,256.280 289.757,256.622 289.667 C 256.964 289.578,256.684 289.505,256.000 289.505 C 255.316 289.505,255.036 289.578,255.378 289.667 M252.533 290.145 C 252.093 290.321,251.453 290.368,251.111 290.247 C 250.636 290.081,250.583 290.131,250.887 290.461 C 251.198 290.799,251.661 290.778,253.020 290.360 C 253.975 290.067,254.436 289.826,254.044 289.825 C 253.653 289.824,252.973 289.968,252.533 290.145 M170.584 290.391 C 171.223 290.470,172.183 290.469,172.717 290.387 C 173.252 290.306,172.729 290.242,171.556 290.244 C 170.382 290.246,169.945 290.312,170.584 290.391 M175.022 290.744 C 175.560 290.825,176.440 290.825,176.978 290.744 C 177.516 290.662,177.076 290.595,176.000 290.595 C 174.924 290.595,174.484 290.662,175.022 290.744 M178.519 290.979 C 178.600 291.054,180.107 291.201,181.867 291.307 C 184.224 291.449,184.598 291.422,183.289 291.203 C 181.436 290.894,178.261 290.745,178.519 290.979 M188.267 292.076 C 190.027 292.343,192.347 292.551,193.422 292.540 C 195.603 292.515,193.841 292.287,187.733 291.802 L 185.067 291.591 188.267 292.076 M246.070 292.348 C 246.029 292.769,247.187 295.509,247.341 295.355 C 247.418 295.278,247.169 294.511,246.788 293.652 C 246.407 292.792,246.083 292.206,246.070 292.348 M196.560 292.877 C 197.109 292.981,197.616 293.531,198.072 294.517 C 198.448 295.333,198.660 295.600,198.541 295.111 C 198.174 293.593,197.369 292.619,196.525 292.671 C 195.744 292.718,195.744 292.721,196.560 292.877 M254.044 293.947 C 252.517 294.165,252.408 294.399,252.998 296.183 C 253.467 297.598,253.517 297.003,253.089 295.109 C 252.836 293.989,257.775 293.686,258.844 294.756 C 259.236 295.147,259.556 295.316,259.556 295.131 C 259.556 294.003,257.204 293.497,254.044 293.947 M264.558 296.401 C 264.577 297.183,264.643 297.272,264.837 296.780 C 265.066 296.200,265.243 296.253,266.678 297.338 C 269.012 299.102,275.141 303.074,276.923 303.977 C 279.689 305.379,278.794 304.561,275.623 302.789 C 273.061 301.356,269.979 299.308,265.210 295.868 C 264.588 295.419,264.535 295.462,264.558 296.401 M247.467 295.991 C 247.467 296.084,247.786 296.684,248.176 297.325 C 249.155 298.929,249.178 298.905,246.489 299.104 C 244.252 299.270,238.030 300.727,238.320 301.017 C 238.392 301.088,240.020 300.749,241.938 300.262 C 243.855 299.776,246.164 299.375,247.068 299.372 C 248.845 299.366,250.059 298.857,249.383 298.400 C 249.166 298.253,248.722 297.613,248.396 296.978 C 247.867 295.945,247.467 295.520,247.467 295.991 M265.133 299.911 C 265.242 301.280,265.392 302.467,265.466 302.548 C 265.713 302.821,265.562 300.282,265.246 298.844 C 265.005 297.751,264.979 297.998,265.133 299.911 M253.511 298.361 C 253.511 298.506,254.111 298.673,254.844 298.734 C 256.992 298.912,256.837 301.001,254.591 302.133 C 253.719 302.573,253.255 302.933,253.561 302.933 C 255.463 302.933,257.408 300.112,256.369 298.860 C 255.946 298.351,253.511 297.925,253.511 298.361 M260.013 299.911 C 260.015 300.889,260.085 301.247,260.166 300.706 C 260.248 300.166,260.246 299.366,260.161 298.928 C 260.077 298.491,260.010 298.933,260.013 299.911 M199.860 299.556 C 199.845 299.751,200.232 301.271,200.719 302.933 C 201.207 304.596,201.522 305.396,201.420 304.711 C 201.215 303.330,199.903 298.994,199.860 299.556 M326.073 299.943 C 325.941 303.421,320.455 309.094,315.556 310.818 C 314.578 311.162,314.112 311.449,314.521 311.455 C 318.413 311.516,327.419 302.479,326.283 299.653 C 326.183 299.404,326.088 299.534,326.073 299.943 M234.215 302.302 C 232.501 302.903,231.161 303.457,231.238 303.535 C 231.388 303.684,237.509 301.632,237.809 301.332 C 238.148 300.993,237.310 301.219,234.215 302.302 M208.356 301.998 C 208.356 302.620,209.888 308.275,210.020 308.143 C 210.177 307.986,208.760 302.154,208.503 301.896 C 208.422 301.815,208.356 301.861,208.356 301.998 M260.364 303.644 C 260.364 304.524,260.433 304.884,260.518 304.444 C 260.602 304.004,260.602 303.284,260.518 302.844 C 260.433 302.404,260.364 302.764,260.364 303.644 M265.628 305.308 C 265.575 309.432,261.898 310.361,260.986 306.480 C 260.712 305.317,260.693 305.304,260.659 306.250 C 260.607 307.682,262.449 309.487,263.653 309.185 C 265.139 308.812,264.629 309.632,263.088 310.093 C 261.972 310.428,261.380 310.431,260.485 310.108 C 258.100 309.245,257.760 309.369,249.621 314.050 C 236.821 321.414,225.721 330.821,221.728 337.689 C 221.090 338.786,221.915 337.956,223.318 336.089 C 229.958 327.252,241.506 318.310,255.644 311.057 C 261.149 308.233,264.205 312.160,258.881 315.217 C 257.590 315.959,254.988 317.498,253.099 318.638 C 251.210 319.778,249.566 320.711,249.446 320.711 C 248.466 320.711,243.727 324.265,240.400 327.495 C 236.905 330.888,230.401 342.422,228.974 347.757 C 228.742 348.624,228.438 349.493,228.297 349.689 C 228.156 349.884,227.749 351.004,227.393 352.178 C 227.036 353.351,226.619 354.631,226.466 355.022 C 226.313 355.413,225.919 356.693,225.592 357.867 C 225.264 359.040,224.865 360.320,224.706 360.711 C 224.360 361.562,222.596 368.759,222.331 370.403 C 222.228 371.041,222.001 371.650,221.827 371.758 C 221.653 371.865,221.511 372.319,221.511 372.766 C 221.511 373.427,220.081 375.373,217.630 378.046 C 217.256 378.454,213.262 379.427,212.757 379.233 C 212.513 379.139,210.983 378.885,209.357 378.669 C 204.482 378.019,195.042 374.591,194.548 373.290 C 193.797 371.311,192.673 377.677,192.136 386.949 C 191.911 390.851,191.832 391.192,191.010 391.838 C 190.524 392.221,190.288 392.533,190.486 392.533 C 190.684 392.533,191.045 392.293,191.289 392.000 C 191.596 391.630,192.411 391.467,193.944 391.467 C 195.686 391.467,196.290 391.319,196.784 390.774 C 197.405 390.087,197.420 390.087,198.379 390.796 C 199.211 391.412,200.031 391.532,204.215 391.653 C 207.697 391.753,209.292 391.940,209.817 392.307 C 210.365 392.691,210.836 392.737,211.675 392.487 C 215.766 391.272,217.646 391.087,219.797 391.691 C 223.660 392.775,224.320 391.821,224.509 384.889 C 224.645 379.922,224.822 378.675,226.201 372.985 C 226.603 371.327,226.965 369.807,227.006 369.607 C 227.287 368.239,229.535 360.621,230.052 359.289 C 231.748 354.912,232.533 352.783,232.533 352.558 C 232.533 352.305,234.691 347.493,235.334 346.311 C 235.494 346.018,236.298 344.498,237.121 342.933 C 237.944 341.369,239.091 339.289,239.671 338.311 C 240.250 337.333,240.820 336.253,240.937 335.911 C 241.054 335.569,241.261 335.289,241.397 335.289 C 241.533 335.289,242.184 334.329,242.844 333.156 C 243.504 331.982,244.174 331.022,244.333 331.022 C 244.492 331.022,244.622 330.845,244.622 330.629 C 244.622 330.413,245.102 329.630,245.689 328.889 C 246.276 328.148,246.756 327.438,246.756 327.310 C 246.756 327.183,247.116 326.710,247.556 326.258 C 247.996 325.807,248.689 325.054,249.096 324.586 C 250.104 323.425,252.369 321.422,252.674 321.422 C 252.810 321.422,253.174 321.205,253.483 320.940 C 257.236 317.716,262.199 316.883,265.741 318.882 C 268.031 320.174,268.250 320.224,267.928 319.378 C 267.734 318.869,267.775 318.839,268.153 319.214 C 268.406 319.466,268.616 319.873,268.618 320.118 C 268.620 320.364,269.222 321.267,269.956 322.124 C 270.689 322.982,271.289 323.559,271.289 323.408 C 271.289 323.124,270.184 321.028,269.867 320.711 C 269.769 320.613,269.647 320.327,269.596 320.076 C 269.233 318.296,265.313 311.739,264.259 311.149 C 263.767 310.874,263.760 310.760,264.202 310.273 C 264.482 309.965,264.917 309.468,265.170 309.168 C 267.530 306.358,272.795 313.703,280.836 331.022 L 281.248 331.911 281.042 331.022 C 280.710 329.592,274.278 316.986,272.333 313.955 C 270.266 310.732,267.765 308.267,266.563 308.267 C 265.769 308.267,265.739 308.174,265.884 306.166 C 265.968 305.010,265.951 303.850,265.846 303.588 C 265.742 303.326,265.644 304.099,265.628 305.308 M247.556 303.890 C 247.898 303.979,248.458 303.979,248.800 303.890 C 249.142 303.800,248.862 303.727,248.178 303.727 C 247.493 303.727,247.213 303.800,247.556 303.890 M226.855 304.938 C 223.858 306.096,216.911 309.442,216.000 310.167 C 215.609 310.478,217.209 309.775,219.556 308.606 C 221.902 307.437,225.142 305.981,226.756 305.370 C 228.369 304.760,229.689 304.202,229.689 304.131 C 229.689 303.895,229.184 304.038,226.855 304.938 M241.834 305.108 C 240.008 305.702,238.583 306.257,238.668 306.342 C 238.753 306.427,239.527 306.242,240.389 305.932 C 241.251 305.621,243.076 305.069,244.444 304.703 C 245.813 304.338,246.533 304.037,246.044 304.034 C 245.556 304.031,243.661 304.514,241.834 305.108 M279.111 304.872 C 279.111 305.054,282.279 306.498,282.623 306.473 C 282.904 306.452,279.737 304.749,279.378 304.727 C 279.231 304.718,279.111 304.784,279.111 304.872 M236.622 307.035 C 235.733 307.463,235.704 307.512,236.444 307.331 C 237.452 307.085,238.584 306.508,238.044 306.516 C 237.849 306.519,237.209 306.752,236.622 307.035 M283.378 306.784 C 283.671 306.966,284.311 307.221,284.800 307.352 C 285.418 307.517,285.526 307.489,285.156 307.260 C 284.862 307.079,284.222 306.823,283.733 306.693 C 283.116 306.527,283.007 306.555,283.378 306.784 M232.431 308.510 C 231.103 309.013,230.078 309.486,230.154 309.561 C 230.289 309.696,235.061 307.989,235.348 307.703 C 235.675 307.378,234.727 307.640,232.431 308.510 M285.950 307.757 C 286.234 308.041,292.325 309.694,292.975 309.664 C 293.270 309.650,291.831 309.174,289.778 308.606 C 285.673 307.471,285.661 307.468,285.950 307.757 M210.376 310.400 C 210.493 311.280,210.646 312.067,210.716 312.148 C 210.984 312.457,210.780 310.190,210.480 309.511 C 210.269 309.036,210.235 309.332,210.376 310.400 M228.356 310.056 C 227.165 310.534,227.387 310.777,228.622 310.347 C 229.209 310.142,229.689 309.911,229.689 309.832 C 229.689 309.621,229.256 309.694,228.356 310.056 M294.400 310.044 C 294.889 310.201,295.609 310.329,296.000 310.329 C 296.563 310.329,296.526 310.270,295.822 310.044 C 295.333 309.888,294.613 309.760,294.222 309.760 C 293.659 309.760,293.696 309.819,294.400 310.044 M297.725 310.765 C 298.283 310.932,299.643 311.152,300.747 311.254 C 302.724 311.436,302.717 311.431,300.267 310.941 C 297.504 310.389,296.160 310.296,297.725 310.765 M213.199 312.045 C 211.839 313.043,211.399 313.213,211.160 312.836 C 210.938 312.486,210.854 312.573,210.850 313.156 C 210.847 313.596,210.918 313.956,211.008 313.956 C 211.224 313.956,215.111 311.045,215.111 310.882 C 215.111 310.661,214.968 310.747,213.199 312.045 M224.356 312.000 C 223.084 312.665,222.204 313.210,222.400 313.210 C 222.596 313.210,223.796 312.665,225.067 312.000 C 226.338 311.335,227.218 310.790,227.022 310.790 C 226.827 310.790,225.627 311.335,224.356 312.000 M303.560 311.718 C 304.002 311.803,304.642 311.800,304.982 311.711 C 305.322 311.622,304.960 311.552,304.178 311.556 C 303.396 311.560,303.117 311.633,303.560 311.718 M307.289 312.081 C 308.022 312.158,309.222 312.158,309.956 312.081 C 310.689 312.005,310.089 311.942,308.622 311.942 C 307.156 311.942,306.556 312.005,307.289 312.081 M203.572 314.044 C 203.704 314.484,203.960 315.001,204.139 315.192 C 204.317 315.383,204.284 315.023,204.064 314.392 C 203.614 313.100,203.198 312.807,203.572 314.044 M219.243 314.667 C 215.716 316.728,213.752 318.498,210.035 322.965 C 206.000 327.815,204.326 329.956,204.570 329.956 C 204.671 329.956,206.062 328.317,207.660 326.315 C 213.528 318.965,214.800 317.794,221.364 313.710 C 221.738 313.477,221.962 313.277,221.861 313.265 C 221.760 313.254,220.582 313.885,219.243 314.667 M204.444 315.894 C 204.444 316.040,204.937 316.619,205.538 317.181 L 206.632 318.202 204.205 321.258 C 200.400 326.049,197.386 330.311,197.802 330.311 C 197.878 330.311,198.664 329.231,199.550 327.911 C 200.435 326.591,202.535 323.831,204.217 321.778 C 206.852 318.559,207.192 317.995,206.682 317.689 C 206.357 317.493,205.720 316.950,205.267 316.481 C 204.815 316.013,204.444 315.749,204.444 315.894 M257.956 323.090 C 253.809 325.756,252.105 327.604,248.923 332.889 C 247.322 335.547,248.491 334.143,250.446 331.060 C 252.704 327.498,254.374 325.710,256.711 324.351 C 258.610 323.248,260.134 322.125,259.692 322.154 C 259.519 322.166,258.738 322.587,257.956 323.090 M262.025 322.526 C 262.504 322.717,263.624 323.456,264.514 324.167 L 266.133 325.461 265.067 324.299 C 263.948 323.079,262.400 322.118,261.618 322.156 C 261.364 322.168,261.547 322.335,262.025 322.526 M266.081 325.956 C 266.174 326.102,266.967 327.291,267.844 328.597 C 269.477 331.027,271.089 334.798,272.191 338.765 C 272.531 339.993,272.882 340.926,272.969 340.839 C 273.882 339.925,267.391 325.689,266.061 325.689 C 265.980 325.689,265.989 325.809,266.081 325.956 M203.404 331.248 C 202.329 332.615,202.453 333.165,203.822 333.102 C 204.898 333.053,204.910 333.039,204.000 332.901 C 202.828 332.723,202.792 332.477,203.759 331.248 C 204.164 330.733,204.416 330.311,204.318 330.311 C 204.221 330.311,203.809 330.733,203.404 331.248 M281.273 332.122 C 281.257 332.238,281.571 333.278,281.971 334.433 C 282.370 335.588,282.915 337.733,283.183 339.200 C 283.451 340.667,283.684 341.372,283.701 340.768 C 283.750 339.079,281.445 330.871,281.273 332.122 M195.467 333.425 C 194.929 333.759,194.489 334.265,194.489 334.550 C 194.489 334.965,194.578 334.950,194.933 334.476 C 195.178 334.149,195.698 333.644,196.089 333.352 C 197.053 332.634,196.671 332.679,195.467 333.425 M207.419 334.199 C 209.133 335.088,210.819 336.355,213.333 338.642 L 215.289 340.422 213.689 338.712 C 211.833 336.728,208.221 334.059,206.933 333.720 C 206.400 333.579,206.594 333.771,207.419 334.199 M245.690 338.222 C 241.241 345.772,234.420 360.761,235.117 361.458 C 235.195 361.536,236.031 359.490,236.975 356.912 C 239.260 350.668,244.066 341.055,247.742 335.378 C 248.026 334.938,248.165 334.578,248.049 334.578 C 247.933 334.578,246.872 336.218,245.690 338.222 M192.764 338.254 C 191.913 339.850,191.379 340.996,191.576 340.800 C 192.090 340.291,194.599 335.635,194.442 335.482 C 194.370 335.411,193.615 336.659,192.764 338.254 M220.495 339.652 C 220.100 340.291,219.385 341.659,218.906 342.692 L 218.036 344.570 217.256 343.307 C 216.190 341.582,215.963 341.705,216.967 343.464 C 217.995 345.263,217.943 345.296,219.840 341.600 C 221.491 338.383,221.743 337.632,220.495 339.652 M225.809 340.356 C 224.502 342.467,224.240 342.982,224.851 342.243 C 225.271 341.735,225.426 341.688,225.437 342.065 C 225.451 342.552,226.798 340.382,226.830 339.822 C 226.860 339.281,226.290 339.579,225.809 340.356 M190.464 342.594 C 190.135 343.283,189.870 344.041,189.874 344.279 C 189.879 344.517,190.202 344.007,190.592 343.147 C 191.437 341.284,191.323 340.792,190.464 342.594 M273.097 341.867 C 273.086 342.258,273.233 342.818,273.422 343.111 C 273.879 343.818,273.879 342.930,273.422 341.867 L 273.117 341.156 273.097 341.867 M283.847 344.178 C 283.847 345.449,283.912 345.969,283.991 345.333 C 284.069 344.698,284.069 343.658,283.991 343.022 C 283.912 342.387,283.847 342.907,283.847 344.178 M222.778 345.555 C 221.064 348.958,221.182 349.277,222.934 345.976 C 223.706 344.521,224.272 343.265,224.192 343.184 C 224.111 343.104,223.475 344.171,222.778 345.555 M223.311 347.222 C 222.894 348.337,222.615 349.311,222.690 349.387 C 222.766 349.462,223.165 348.608,223.578 347.489 C 223.990 346.369,224.269 345.395,224.199 345.324 C 224.128 345.253,223.728 346.107,223.311 347.222 M274.365 346.311 C 274.482 346.996,274.873 348.436,275.233 349.511 C 275.593 350.587,275.808 350.987,275.712 350.400 C 275.616 349.813,275.225 348.373,274.844 347.200 C 274.463 346.027,274.247 345.627,274.365 346.311 M283.990 350.933 C 283.859 353.182,283.678 355.742,283.587 356.622 L 283.421 358.222 283.767 356.622 C 284.186 354.686,284.576 348.966,284.373 347.733 C 284.293 347.244,284.120 348.684,283.990 350.933 M189.515 347.911 C 189.515 348.107,189.834 348.747,190.222 349.333 C 191.143 350.723,191.144 350.229,190.224 348.720 C 189.833 348.079,189.514 347.716,189.515 347.911 M215.994 349.531 C 215.859 349.954,215.172 350.963,214.465 351.773 C 213.190 353.235,213.189 353.237,214.356 352.178 C 215.002 351.591,215.785 350.631,216.097 350.044 L 216.663 348.978 216.873 349.835 C 217.556 352.617,221.611 351.866,221.494 348.978 C 221.486 348.782,221.173 349.203,220.798 349.912 C 219.715 351.961,217.488 351.901,217.181 349.814 C 217.026 348.756,216.295 348.582,215.994 349.531 M191.300 350.489 C 191.306 350.636,191.746 351.063,192.278 351.438 L 193.244 352.121 192.382 351.171 C 191.477 350.174,191.282 350.051,191.300 350.489 M275.982 352.178 C 275.982 352.569,276.110 353.289,276.267 353.778 C 276.492 354.482,276.551 354.519,276.551 353.956 C 276.551 353.564,276.423 352.844,276.267 352.356 C 276.041 351.652,275.982 351.615,275.982 352.178 M211.556 354.133 C 210.871 354.709,210.041 355.185,209.710 355.190 C 208.912 355.203,208.674 355.648,209.124 356.284 C 209.422 356.705,209.452 356.685,209.289 356.178 C 209.149 355.741,209.280 355.556,209.730 355.556 C 210.082 355.556,210.997 355.002,211.763 354.326 C 213.459 352.828,213.291 352.672,211.556 354.133 M220.469 355.381 C 220.065 356.691,219.746 357.947,219.762 358.171 C 219.778 358.395,220.170 357.383,220.633 355.923 C 221.097 354.463,221.415 353.207,221.340 353.133 C 221.266 353.059,220.874 354.070,220.469 355.381 M194.547 354.326 C 194.319 354.825,194.140 355.426,194.147 355.661 C 194.155 355.896,194.397 355.545,194.686 354.880 C 195.294 353.480,195.165 352.969,194.547 354.326 M198.264 355.612 C 197.970 357.086,198.259 357.362,198.578 355.911 C 198.749 355.132,198.979 354.854,199.341 354.993 C 199.631 355.104,199.763 355.037,199.642 354.840 C 199.198 354.123,198.482 354.524,198.264 355.612 M276.693 355.378 C 276.693 355.769,276.821 356.489,276.978 356.978 C 277.203 357.682,277.262 357.719,277.262 357.156 C 277.262 356.764,277.134 356.044,276.978 355.556 C 276.752 354.852,276.693 354.815,276.693 355.378 M193.463 357.368 C 193.245 357.994,193.078 358.682,193.092 358.898 C 193.105 359.113,193.346 358.663,193.626 357.898 C 193.907 357.133,194.074 356.444,193.998 356.368 C 193.922 356.293,193.681 356.742,193.463 357.368 M18.825 358.667 L 17.600 360.000 18.933 358.775 C 20.174 357.634,20.430 357.333,20.159 357.333 C 20.099 357.333,19.499 357.933,18.825 358.667 M38.400 358.578 C 39.063 359.262,39.686 359.822,39.784 359.822 C 39.882 359.822,39.419 359.262,38.756 358.578 C 38.092 357.893,37.469 357.333,37.372 357.333 C 37.274 357.333,37.737 357.893,38.400 358.578 M197.908 358.000 C 198.051 358.568,197.992 358.765,197.727 358.601 C 197.501 358.462,197.333 358.603,197.333 358.933 C 197.333 359.638,197.902 359.330,198.434 358.337 C 198.672 357.892,198.684 357.691,198.466 357.826 C 198.267 357.949,198.013 357.848,197.900 357.602 C 197.788 357.357,197.791 357.536,197.908 358.000 M208.818 359.822 C 208.818 360.898,208.884 361.338,208.966 360.800 C 209.047 360.262,209.047 359.382,208.966 358.844 C 208.884 358.307,208.818 358.747,208.818 359.822 M277.385 358.578 C 277.374 358.969,277.581 360.249,277.846 361.422 C 278.111 362.596,278.337 363.236,278.348 362.844 C 278.360 362.453,278.152 361.173,277.888 360.000 C 277.623 358.827,277.397 358.187,277.385 358.578 M283.980 360.356 C 284.089 361.529,284.238 362.556,284.311 362.637 C 284.549 362.902,284.368 360.386,284.071 359.289 C 283.880 358.587,283.849 358.953,283.980 360.356 M192.533 360.533 C 192.398 361.148,192.362 361.725,192.453 361.816 C 192.543 361.906,192.720 361.469,192.844 360.844 C 192.969 360.220,193.006 359.643,192.925 359.562 C 192.845 359.482,192.668 359.919,192.533 360.533 M234.514 362.870 C 234.384 363.391,234.345 363.886,234.429 363.970 C 234.513 364.053,234.688 363.696,234.819 363.175 C 234.950 362.654,234.988 362.159,234.904 362.075 C 234.821 361.991,234.645 362.349,234.514 362.870 M218.133 363.733 C 217.998 364.348,217.962 364.925,218.053 365.016 C 218.143 365.106,218.320 364.669,218.444 364.044 C 218.569 363.420,218.606 362.843,218.525 362.762 C 218.445 362.682,218.268 363.119,218.133 363.733 M284.534 364.267 C 284.538 365.049,284.611 365.327,284.696 364.885 C 284.781 364.442,284.778 363.802,284.689 363.463 C 284.600 363.123,284.530 363.484,284.534 364.267 M233.803 365.359 C 233.672 365.880,233.634 366.375,233.718 366.459 C 233.802 366.542,233.977 366.185,234.108 365.663 C 234.239 365.142,234.277 364.648,234.193 364.564 C 234.110 364.480,233.934 364.838,233.803 365.359 M190.881 366.767 C 190.571 367.632,190.443 368.261,190.599 368.165 C 190.933 367.958,191.776 365.524,191.581 365.329 C 191.507 365.255,191.192 365.903,190.881 366.767 M217.274 367.141 C 217.045 368.052,216.924 368.864,217.005 368.946 C 217.086 369.027,217.341 368.348,217.570 367.437 C 217.800 366.526,217.921 365.714,217.839 365.632 C 217.758 365.551,217.504 366.229,217.274 367.141 M284.890 367.111 C 284.894 367.893,284.966 368.171,285.051 367.729 C 285.137 367.287,285.133 366.647,285.044 366.307 C 284.955 365.967,284.886 366.329,284.890 367.111 M278.838 367.289 C 278.838 367.973,278.911 368.253,279.001 367.911 C 279.090 367.569,279.090 367.009,279.001 366.667 C 278.911 366.324,278.838 366.604,278.838 367.289 M208.821 369.244 C 208.823 370.418,208.890 370.855,208.969 370.216 C 209.048 369.577,209.046 368.617,208.965 368.083 C 208.884 367.548,208.819 368.071,208.821 369.244 M232.737 368.914 C 232.606 369.435,232.567 369.930,232.651 370.014 C 232.735 370.098,232.910 369.740,233.041 369.219 C 233.172 368.698,233.210 368.203,233.127 368.119 C 233.043 368.035,232.867 368.393,232.737 368.914 M279.194 369.778 C 279.194 370.462,279.267 370.742,279.356 370.400 C 279.446 370.058,279.446 369.498,279.356 369.156 C 279.267 368.813,279.194 369.093,279.194 369.778 M285.262 370.844 C 285.262 371.920,285.329 372.360,285.410 371.822 C 285.492 371.284,285.492 370.404,285.410 369.867 C 285.329 369.329,285.262 369.769,285.262 370.844 M216.370 370.381 C 215.979 371.939,215.511 372.262,213.556 372.326 C 211.928 372.380,211.882 372.401,213.122 372.529 C 215.475 372.771,217.976 370.746,216.789 369.560 C 216.695 369.466,216.507 369.836,216.370 370.381 M27.111 370.039 C 28.040 370.112,29.560 370.112,30.489 370.039 C 31.418 369.966,30.658 369.906,28.800 369.906 C 26.942 369.906,26.182 369.966,27.111 370.039 M189.003 371.759 C 188.872 372.280,188.834 372.775,188.918 372.859 C 189.002 372.942,189.177 372.585,189.308 372.063 C 189.439 371.542,189.477 371.048,189.393 370.964 C 189.310 370.880,189.134 371.238,189.003 371.759 M279.556 372.444 C 279.560 373.227,279.633 373.505,279.718 373.063 C 279.803 372.620,279.800 371.980,279.711 371.640 C 279.622 371.300,279.552 371.662,279.556 372.444 M231.333 374.444 C 231.037 375.926,231.324 376.214,231.644 374.756 C 231.779 374.141,231.816 373.564,231.725 373.473 C 231.635 373.383,231.458 373.820,231.333 374.444 M285.439 377.290 C 285.311 380.412,285.414 381.742,285.927 383.594 C 286.752 386.569,286.752 387.998,285.928 388.745 C 284.345 390.177,282.878 389.083,282.261 386.008 C 282.037 384.894,281.783 384.054,281.696 384.141 C 281.310 384.527,282.431 388.350,283.117 388.990 C 285.827 391.515,287.628 388.445,286.283 383.594 C 285.769 381.742,285.666 380.412,285.795 377.290 C 285.885 375.114,285.878 373.333,285.780 373.333 C 285.682 373.333,285.529 375.114,285.439 377.290 M26.044 374.664 C 27.560 374.731,30.040 374.731,31.556 374.664 C 33.071 374.598,31.831 374.543,28.800 374.543 C 25.769 374.543,24.529 374.598,26.044 374.664 M279.864 375.852 C 279.887 376.716,280.033 377.902,280.187 378.489 C 280.357 379.136,280.392 378.576,280.274 377.067 C 280.054 374.241,279.801 373.490,279.864 375.852 M18.844 378.133 C 19.508 378.818,20.131 379.378,20.228 379.378 C 20.326 379.378,19.863 378.818,19.200 378.133 C 18.537 377.449,17.914 376.889,17.816 376.889 C 17.718 376.889,18.181 377.449,18.844 378.133 M38.381 378.222 L 37.156 379.556 38.489 378.330 C 39.222 377.656,39.822 377.056,39.822 376.997 C 39.822 376.725,39.521 376.981,38.381 378.222 M230.222 379.378 C 230.086 380.186,230.048 380.922,230.140 381.014 C 230.231 381.105,230.412 380.513,230.542 379.698 C 230.673 378.883,230.710 378.147,230.625 378.062 C 230.540 377.977,230.359 378.569,230.222 379.378 M280.949 381.689 C 280.944 382.080,281.076 382.720,281.244 383.111 C 281.634 384.017,281.634 383.082,281.244 381.867 C 281.016 381.152,280.958 381.117,280.949 381.689 M186.786 386.489 C 186.786 387.956,186.849 388.556,186.926 387.822 C 187.002 387.089,187.002 385.889,186.926 385.156 C 186.849 384.422,186.786 385.022,186.786 386.489 M228.494 387.986 C 228.375 388.434,228.290 389.120,228.307 389.511 C 228.324 389.902,228.485 389.598,228.664 388.835 C 229.010 387.358,228.862 386.614,228.494 387.986 M223.588 389.659 C 223.115 390.905,222.231 391.828,221.545 391.794 C 221.076 391.771,221.068 391.731,221.499 391.561 C 222.423 391.198,223.265 389.895,223.283 388.800 C 223.295 388.030,223.388 387.873,223.619 388.237 C 223.809 388.539,223.797 389.109,223.588 389.659 M187.036 390.085 C 187.019 390.805,188.354 392.537,188.915 392.523 C 189.145 392.517,189.039 392.341,188.679 392.131 C 188.319 391.922,187.805 391.247,187.537 390.631 C 187.269 390.015,187.044 389.770,187.036 390.085 M224.711 389.929 C 224.711 390.122,225.092 390.484,225.558 390.733 C 226.471 391.222,227.911 390.960,227.911 390.305 C 227.911 390.018,227.788 390.025,227.484 390.329 C 226.893 390.920,226.129 390.862,225.361 390.167 C 225.004 389.843,224.711 389.736,224.711 389.929 M219.572 390.373 C 219.460 390.554,219.651 390.775,219.996 390.865 C 220.395 390.969,220.275 391.044,219.665 391.070 C 218.557 391.118,218.003 390.532,218.929 390.290 C 219.274 390.200,219.605 390.108,219.665 390.086 C 219.726 390.063,219.684 390.192,219.572 390.373 M205.156 390.933 C 204.123 391.523,202.877 391.633,203.204 391.105 C 203.326 390.907,203.565 390.829,203.733 390.933 C 203.902 391.037,204.140 390.960,204.263 390.761 C 204.386 390.563,204.837 390.406,205.265 390.413 C 206.018 390.425,206.014 390.442,205.156 390.933 M208.497 391.170 C 208.396 391.333,208.012 391.467,207.644 391.467 C 207.276 391.467,206.893 391.333,206.792 391.170 C 206.691 391.007,207.075 390.874,207.644 390.874 C 208.214 390.874,208.597 391.007,208.497 391.170 M212.267 391.822 C 211.973 392.012,211.493 392.167,211.200 392.167 C 210.726 392.167,210.726 392.129,211.200 391.822 C 211.493 391.633,211.973 391.478,212.267 391.478 C 212.741 391.478,212.741 391.516,212.267 391.822 " stroke="none" fill="#999896" fill-rule="evenodd"></path></g></svg>