<svg id="svg" version="1.1" xmlns="http://www.w3.org/2000/svg" xmlns:xlink="http://www.w3.org/1999/xlink" width="400" height="409.2444444444444" viewBox="0, 0, 400,409.2444444444444"><g id="svgg"><path id="path0" d="M210.133 46.623 C 178.846 49.155,155.562 60.793,136.602 83.376 C 120.898 102.081,115.278 112.756,118.578 117.613 C 119.961 119.648,119.769 120.314,116.245 125.722 C 108.736 137.248,104.730 150.895,100.446 179.556 C 99.033 189.007,98.746 189.322,95.582 184.893 C 90.601 177.920,79.595 174.425,71.741 177.323 C 61.944 180.937,55.729 198.759,60.745 208.853 C 63.486 214.368,70.631 219.348,75.840 219.373 C 78.648 219.386,79.080 220.171,79.470 225.956 C 80.349 238.997,87.096 251.546,100.598 265.249 C 107.711 272.468,117.893 277.529,135.256 282.477 C 138.208 283.318,142.942 284.745,145.778 285.647 C 153.754 288.187,156.071 288.556,172.800 289.954 C 176.418 290.257,182.098 290.810,185.422 291.183 C 188.747 291.556,192.626 291.969,194.042 292.100 C 198.334 292.497,198.833 293.356,201.987 305.772 C 204.022 313.788,204.219 314.361,205.571 316.248 C 207.057 318.320,206.905 318.838,203.583 322.998 C 201.936 325.061,199.822 327.990,198.886 329.508 C 197.949 331.025,196.750 332.827,196.219 333.511 C 193.798 336.637,190.222 344.406,190.222 346.541 L 190.222 348.575 192.711 350.957 C 195.549 353.674,195.500 353.487,194.298 357.004 C 193.802 358.456,193.003 361.190,192.522 363.080 C 192.041 364.970,191.180 367.690,190.607 369.125 C 188.150 375.286,186.536 387.741,187.862 390.305 C 188.574 391.682,189.530 392.016,190.827 391.341 C 192.989 390.216,193.312 389.486,193.542 385.208 C 193.788 380.658,194.414 376.148,194.867 375.672 C 195.055 375.475,196.282 375.859,197.945 376.634 C 199.467 377.343,202.120 378.328,203.842 378.822 C 217.107 382.633,221.178 380.020,224.862 365.333 C 229.510 346.801,235.338 334.163,242.402 327.303 C 247.489 322.362,249.081 322.274,245.515 327.131 C 235.235 341.137,227.626 358.616,224.242 376.000 C 222.377 385.574,222.623 388.529,225.378 389.671 C 227.578 390.582,228.058 389.733,229.330 382.695 C 234.216 355.663,248.700 326.281,259.123 322.260 C 267.311 319.100,276.505 341.764,280.346 374.578 C 281.009 380.241,282.769 387.557,283.618 388.178 C 285.570 389.607,286.506 387.732,285.757 383.894 C 285.443 382.289,285.103 378.181,285.000 374.756 C 284.892 371.171,284.457 366.046,283.975 362.667 C 283.251 357.583,283.191 356.429,283.529 354.020 C 283.939 351.105,283.703 344.649,283.020 340.089 C 282.389 335.873,280.235 330.104,276.714 323.200 C 271.551 313.078,269.282 309.960,266.327 308.930 L 265.244 308.553 265.233 305.654 C 265.226 304.060,265.078 301.643,264.903 300.284 C 264.305 295.643,265.001 295.540,270.756 299.420 C 286.098 309.766,309.909 314.559,318.462 309.023 C 325.976 304.160,327.602 298.614,324.308 289.078 C 321.678 281.465,316.961 273.412,311.287 266.844 C 307.872 262.892,307.797 263.264,312.956 258.458 C 326.035 246.274,331.951 237.670,343.977 213.346 C 348.954 203.280,350.368 198.723,352.860 184.711 C 357.026 161.286,355.380 147.420,346.507 131.200 C 345.277 128.951,343.250 125.195,342.002 122.854 C 337.011 113.489,326.661 99.010,320.898 93.333 C 295.543 68.354,293.012 66.332,277.965 59.029 C 258.597 49.629,232.340 44.827,210.133 46.623 M136.462 93.651 C 136.990 93.924,138.669 94.565,140.193 95.076 C 154.313 99.812,165.255 112.331,162.518 120.621 C 161.535 123.601,160.372 123.591,156.848 120.574 C 155.746 119.630,153.804 118.167,152.533 117.324 C 151.262 116.480,148.702 114.711,146.844 113.393 C 143.220 110.820,136.481 106.840,131.512 104.338 C 127.206 102.169,127.204 101.958,131.449 96.607 C 134.382 92.910,134.683 92.733,136.462 93.651 M132.800 121.051 C 157.324 135.821,161.423 138.458,169.778 144.846 C 190.615 160.777,208.310 177.094,231.332 201.604 C 244.818 215.962,244.113 214.842,243.343 220.699 C 241.268 236.463,241.680 238.519,246.161 234.792 C 246.910 234.168,247.602 233.956,248.883 233.956 L 250.601 233.956 252.622 230.919 C 262.929 215.428,283.429 213.763,291.613 227.751 C 305.035 250.690,280.536 281.873,253.826 275.850 C 246.523 274.203,245.333 278.293,252.449 280.584 C 255.471 281.557,256.083 282.123,257.953 285.667 C 259.801 289.169,259.667 289.396,255.265 290.211 C 250.699 291.057,250.313 290.780,248.545 285.398 C 247.575 282.446,246.421 281.591,245.292 282.986 C 244.178 284.361,244.894 288.081,247.494 294.424 C 249.456 299.209,249.508 299.104,244.765 299.919 C 237.296 301.204,222.225 307.057,214.904 311.517 C 210.790 314.023,211.082 314.300,209.027 305.956 C 205.109 290.042,202.460 285.546,196.989 285.519 C 196.115 285.515,192.195 285.117,188.278 284.636 C 184.361 284.154,177.876 283.511,173.867 283.208 C 158.249 282.023,154.695 281.489,147.911 279.305 C 145.858 278.644,141.317 277.281,137.821 276.276 C 119.540 271.023,111.025 266.822,104.173 259.678 C 91.865 246.847,86.565 237.134,85.305 225.099 C 84.748 219.772,84.991 219.106,88.172 217.248 C 91.245 215.453,92.938 213.524,95.269 209.160 C 96.755 206.379,97.527 205.363,99.151 204.053 C 102.873 201.049,103.903 198.082,105.253 186.489 C 106.760 173.540,109.375 157.894,111.315 150.222 C 113.441 141.814,115.591 135.660,117.662 132.046 C 126.881 115.966,125.736 116.797,132.800 121.051 M139.162 173.492 C 133.876 175.710,131.349 198.451,135.964 202.281 C 137.054 203.186,138.924 202.901,140.235 201.630 C 145.077 196.938,147.189 176.144,143.049 173.929 C 142.013 173.374,139.986 173.146,139.162 173.492 M83.156 182.359 C 93.356 185.533,96.112 194.844,90.501 207.173 C 84.343 220.706,63.694 215.124,63.878 199.976 C 64.046 186.120,71.971 178.878,83.156 182.359 M274.311 233.020 C 268.333 234.555,263.944 238.796,260.991 245.890 C 258.546 251.764,258.298 256.019,260.313 257.515 C 262.303 258.992,263.584 257.570,264.382 252.997 C 265.503 246.575,267.127 244.506,269.982 245.861 C 272.067 246.850,273.083 248.928,273.410 252.868 C 273.768 257.197,275.153 258.569,277.148 256.573 C 280.099 253.622,277.489 245.580,272.444 242.081 C 269.958 240.356,270.409 239.095,274.134 237.361 C 276.327 236.341,277.798 236.227,279.111 236.978 C 281.103 238.117,282.441 236.992,281.427 235.031 C 280.400 233.046,277.453 232.212,274.311 233.020 M133.800 244.533 C 128.039 250.202,122.358 252.648,115.669 252.336 C 112.232 252.176,111.254 252.236,110.931 252.626 C 108.505 255.548,117.221 257.625,123.556 255.634 C 132.621 252.786,141.367 244.976,138.596 242.204 C 137.659 241.268,136.589 241.788,133.800 244.533 M258.779 294.155 C 259.769 294.940,260.218 296.527,260.613 300.633 C 261.236 307.124,261.711 308.203,264.342 309.090 C 264.551 309.161,264.511 309.782,264.240 310.689 C 263.808 312.131,263.835 312.238,265.231 314.553 C 267.181 317.786,267.163 317.871,264.711 316.988 C 263.929 316.706,262.689 316.469,261.956 316.460 C 260.364 316.441,260.229 315.871,261.527 314.651 C 263.664 312.645,260.759 309.839,257.454 310.717 C 255.153 311.328,242.817 318.559,238.285 321.954 C 231.239 327.230,223.743 335.126,220.898 340.267 C 218.388 344.803,217.885 344.878,215.006 341.149 C 212.436 337.820,210.067 335.915,206.347 334.186 C 202.158 332.239,202.168 332.149,207.220 325.892 C 211.604 320.462,214.695 317.322,217.547 315.401 C 224.004 311.053,240.411 304.666,248.701 303.275 C 255.621 302.114,256.946 300.943,254.246 298.374 C 252.675 296.880,252.310 295.250,253.352 294.385 C 254.468 293.458,257.726 293.320,258.779 294.155 M221.744 353.336 C 220.470 357.588,218.854 363.305,218.153 366.041 C 216.463 372.645,214.439 374.214,210.220 372.191 C 207.519 370.896,207.467 356.882,210.156 354.846 C 210.803 354.356,212.316 353.036,213.518 351.911 C 215.694 349.877,216.975 349.384,217.841 350.250 C 218.815 351.224,220.211 350.453,221.437 348.267 C 224.503 342.796,224.570 343.906,221.744 353.336 M24.840 356.235 C 16.704 358.837,13.487 368.507,18.361 375.708 C 24.150 384.261,37.760 382.213,40.886 372.318 C 44.057 362.282,34.834 353.038,24.840 356.235 M31.041 362.027 C 32.709 362.883,33.437 365.408,32.660 367.638 C 32.274 368.745,32.318 368.859,33.541 369.913 C 35.683 371.760,35.973 374.127,34.174 375.089 C 32.900 375.771,24.027 375.574,23.171 374.844 C 21.759 373.641,22.029 371.789,23.863 370.096 C 25.253 368.813,25.306 368.688,24.930 367.608 C 23.487 363.469,27.215 360.064,31.041 362.027 " stroke="none" fill="#1e234e" fill-rule="evenodd"></path><path id="path1" d="M0.000 204.622 L 0.000 409.244 141.341 409.244 L 282.682 409.244 283.099 408.329 C 284.025 406.298,281.357 406.400,333.333 406.400 C 385.309 406.400,382.642 406.298,383.568 408.329 L 383.985 409.244 391.992 409.244 L 400.000 409.244 400.000 204.622 L 400.000 0.000 200.000 0.000 L 0.000 0.000 0.000 204.622 M227.733 45.165 C 250.271 46.662,270.389 52.525,288.000 62.730 C 295.367 66.999,296.778 68.135,306.133 77.330 C 310.924 82.040,316.364 87.187,318.222 88.769 C 323.379 93.160,326.839 97.277,333.559 107.022 C 340.119 116.535,344.404 123.881,350.675 136.368 C 359.673 154.281,357.369 189.244,345.621 213.069 C 333.805 237.032,329.130 244.089,317.100 256.125 C 309.375 263.853,309.766 262.955,312.651 266.338 C 323.694 279.289,329.758 295.529,326.250 302.756 C 322.988 309.472,315.355 313.358,306.614 312.750 C 294.342 311.897,280.944 307.636,271.742 301.660 C 267.845 299.129,266.759 298.585,266.486 299.028 C 266.019 299.783,266.746 306.928,267.341 307.426 C 271.736 311.107,273.286 313.342,278.054 322.864 C 283.977 334.691,286.368 345.773,284.876 354.474 C 284.509 356.613,284.566 357.654,285.345 363.076 C 285.850 366.587,286.318 371.849,286.432 375.289 C 286.542 378.613,286.871 382.574,287.162 384.090 C 287.910 387.985,287.021 390.044,284.592 390.044 C 282.213 390.044,280.044 384.337,279.098 375.584 C 276.533 351.852,269.399 328.491,263.416 324.230 C 260.382 322.070,255.789 324.533,251.748 330.489 C 240.882 346.503,234.088 363.596,230.417 384.155 C 229.077 391.658,228.597 391.998,219.556 391.856 C 217.286 391.820,215.130 392.011,213.594 392.384 C 212.270 392.705,210.830 392.862,210.394 392.731 C 209.238 392.385,200.100 391.700,196.916 391.721 C 194.982 391.733,193.506 391.983,191.844 392.579 C 189.205 393.526,188.340 393.319,186.916 391.401 C 184.963 388.771,186.559 375.082,189.684 367.656 C 190.177 366.484,190.891 364.195,191.270 362.569 C 191.649 360.943,192.368 358.363,192.866 356.835 C 193.890 353.700,193.928 353.842,191.439 351.562 C 187.385 347.847,188.578 341.876,195.261 332.444 C 196.023 331.369,197.543 329.129,198.640 327.467 C 199.736 325.804,201.550 323.324,202.671 321.956 C 205.279 318.769,205.275 318.790,203.899 316.267 C 203.101 314.803,202.122 311.732,200.782 306.489 C 197.903 295.228,197.306 293.870,195.100 293.552 C 192.863 293.231,179.208 291.867,168.000 290.845 C 154.700 289.633,152.711 289.291,145.394 286.961 C 142.378 286.000,137.616 284.555,134.812 283.749 C 118.039 278.932,107.069 273.637,100.547 267.209 C 86.984 253.846,79.524 240.334,78.216 226.767 C 77.688 221.289,77.663 221.202,76.528 220.952 C 69.915 219.491,66.291 217.771,63.096 214.576 C 54.401 205.881,56.312 188.462,67.063 178.419 C 73.199 172.687,87.552 174.508,94.842 181.945 C 98.429 185.605,98.001 186.242,99.915 174.400 C 104.154 148.172,107.762 136.393,115.006 125.139 C 118.432 119.818,118.382 119.991,117.106 117.815 C 113.969 112.462,119.532 101.787,135.456 82.602 C 157.628 55.889,190.204 42.673,227.733 45.165 M134.544 95.205 C 133.732 95.751,130.134 100.722,130.147 101.281 C 130.156 101.665,132.261 103.031,136.253 105.244 C 139.604 107.102,143.318 109.268,144.506 110.058 C 149.545 113.407,156.060 118.011,158.023 119.611 L 160.136 121.332 160.819 120.488 C 164.645 115.766,155.886 104.048,144.178 98.226 C 142.587 97.435,135.500 94.897,134.999 94.939 C 134.963 94.942,134.758 95.062,134.544 95.205 M125.746 121.156 C 114.528 138.933,111.302 149.897,106.837 185.422 C 105.059 199.574,104.122 202.236,99.802 205.412 C 98.466 206.394,97.785 207.291,96.688 209.513 C 94.262 214.424,92.402 216.523,88.485 218.770 C 86.445 219.940,86.314 220.422,86.761 225.110 C 87.715 235.145,91.142 242.200,100.515 253.428 C 110.044 264.845,116.638 268.635,137.460 274.669 C 140.568 275.570,145.351 277.005,148.089 277.859 C 155.434 280.148,158.568 280.621,174.044 281.773 C 178.151 282.078,184.038 282.644,187.125 283.030 C 190.213 283.416,194.133 283.832,195.837 283.955 C 203.758 284.528,206.196 288.171,210.525 305.911 C 211.906 311.573,211.956 311.621,214.679 309.951 C 220.977 306.089,234.492 300.749,242.813 298.835 C 247.438 297.771,247.339 297.894,246.053 294.776 C 242.241 285.531,242.390 280.889,246.499 280.889 C 248.095 280.889,248.695 281.611,249.778 284.829 C 251.317 289.406,251.616 289.613,255.406 288.734 C 257.342 288.284,257.347 288.251,255.915 285.357 L 254.619 282.739 251.235 281.612 C 247.511 280.371,246.400 279.313,246.400 277.009 C 246.400 274.196,249.145 273.292,254.214 274.435 C 264.876 276.839,278.365 272.219,284.850 263.943 C 295.627 250.187,297.015 237.254,288.886 226.311 C 280.888 215.543,262.827 218.248,253.980 231.538 C 251.386 235.434,251.024 235.729,248.823 235.743 C 247.682 235.751,246.931 236.024,245.892 236.810 C 244.114 238.156,242.575 238.205,241.399 236.953 C 240.310 235.794,240.313 234.562,241.427 224.533 C 242.525 214.648,243.458 216.646,232.053 204.457 C 199.147 169.290,174.481 148.017,148.001 131.969 C 143.552 129.273,137.229 125.436,133.950 123.444 C 127.241 119.367,126.930 119.280,125.746 121.156 M143.573 172.585 C 149.627 175.716,146.500 200.489,139.624 203.859 C 135.097 206.078,132.557 202.468,132.336 193.497 C 131.944 177.625,136.592 168.975,143.573 172.585 M279.134 231.516 C 283.567 232.844,285.009 239.299,280.770 238.840 C 279.955 238.752,278.776 238.464,278.149 238.201 C 277.142 237.779,276.813 237.804,275.341 238.417 C 272.653 239.536,272.626 239.941,275.080 242.353 C 279.806 246.997,281.302 254.861,278.031 257.867 C 275.240 260.431,272.003 258.053,271.998 253.434 C 271.990 245.823,267.463 244.652,266.111 251.911 C 265.153 257.061,264.943 257.669,263.788 258.641 C 260.566 261.352,257.055 258.122,257.543 252.895 C 258.382 243.909,265.027 234.514,272.178 232.202 C 275.872 231.007,277.050 230.891,279.134 231.516 M138.838 240.353 C 145.122 242.742,135.633 253.361,123.911 257.059 C 115.753 259.633,105.986 255.995,109.480 251.684 C 110.142 250.868,110.312 250.844,115.614 250.844 L 121.067 250.844 124.162 249.357 C 128.325 247.357,131.053 245.452,133.317 242.962 C 135.994 240.019,136.870 239.605,138.838 240.353 M255.022 295.122 C 253.815 295.607,254.673 297.956,256.058 297.956 C 256.670 297.956,257.422 300.044,257.106 300.869 C 256.369 302.797,254.285 303.776,249.334 304.520 C 240.266 305.882,222.195 313.254,216.448 317.936 C 214.109 319.841,207.098 327.746,205.262 330.548 C 204.551 331.632,204.755 331.848,207.919 333.361 C 210.200 334.453,211.276 335.296,214.252 338.329 C 218.249 342.400,218.020 342.363,219.893 339.250 C 225.130 330.550,234.957 321.752,247.898 314.179 C 254.988 310.030,256.535 309.300,258.723 309.074 C 260.266 308.915,260.605 308.766,260.465 308.305 C 259.975 306.681,259.570 304.125,259.220 300.444 C 258.730 295.291,257.736 294.031,255.022 295.122 M213.176 354.116 C 209.672 357.116,209.833 356.649,209.803 363.945 C 209.775 370.731,209.838 370.920,212.270 371.371 C 215.104 371.897,215.687 371.065,217.250 364.267 C 217.654 362.507,218.468 359.497,219.059 357.578 C 220.418 353.162,220.361 352.742,218.311 352.132 C 216.133 351.483,216.345 351.401,213.176 354.116 M32.165 354.323 C 47.469 358.309,46.604 379.748,31.022 382.646 C 21.801 384.360,12.788 375.394,14.497 366.206 C 16.097 357.598,24.093 352.220,32.165 354.323 M27.248 363.759 C 25.573 365.076,26.713 368.711,28.800 368.711 C 29.781 368.711,31.289 366.855,31.289 365.648 C 31.289 364.412,29.972 363.022,28.800 363.022 C 28.462 363.022,27.763 363.354,27.248 363.759 M26.348 370.757 C 22.202 372.404,23.385 373.737,28.882 373.611 L 33.244 373.511 33.244 372.622 C 33.244 370.796,29.083 369.670,26.348 370.757 " stroke="none" fill="#fbf9f7" fill-rule="evenodd"></path><path id="path2" d="M72.552 182.303 C 65.894 184.654,61.475 198.870,65.035 206.490 C 69.975 217.065,85.806 217.490,90.501 207.173 C 96.112 194.844,93.356 185.533,83.156 182.359 C 80.436 181.512,74.875 181.483,72.552 182.303 " stroke="none" fill="#d31008" fill-rule="evenodd"></path><path id="path3" d="M285.893 406.656 C 284.765 406.872,283.439 407.754,282.995 408.584 C 282.651 409.226,284.039 409.244,333.333 409.244 C 383.915 409.244,384.024 409.243,383.644 408.533 C 382.528 406.447,385.873 406.582,334.060 406.534 C 308.043 406.510,286.367 406.565,285.893 406.656 " stroke="none" fill="#049cfc" fill-rule="evenodd"></path><path id="path4" d="M211.556 45.196 C 179.533 47.310,154.559 59.585,135.456 82.602 C 119.532 101.787,113.969 112.462,117.106 117.815 C 118.382 119.991,118.432 119.818,115.006 125.139 C 107.762 136.393,104.154 148.172,99.915 174.400 C 98.001 186.242,98.429 185.605,94.842 181.945 C 87.552 174.508,73.199 172.687,67.063 178.419 C 56.312 188.462,54.401 205.881,63.096 214.576 C 66.291 217.771,69.915 219.491,76.528 220.952 C 77.663 221.202,77.688 221.289,78.216 226.767 C 79.524 240.334,86.984 253.846,100.547 267.209 C 107.069 273.637,118.039 278.932,134.812 283.749 C 137.616 284.555,142.378 286.000,145.394 286.961 C 152.711 289.291,154.700 289.633,168.000 290.845 C 179.208 291.867,192.863 293.231,195.100 293.552 C 197.306 293.870,197.903 295.228,200.782 306.489 C 202.122 311.732,203.101 314.803,203.899 316.267 C 205.275 318.790,205.279 318.769,202.671 321.956 C 201.550 323.324,199.736 325.804,198.640 327.467 C 197.543 329.129,196.023 331.369,195.261 332.444 C 188.578 341.876,187.385 347.847,191.439 351.562 C 193.928 353.842,193.890 353.700,192.866 356.835 C 192.368 358.363,191.649 360.943,191.270 362.569 C 190.891 364.195,190.177 366.484,189.684 367.656 C 186.559 375.082,184.963 388.771,186.916 391.401 C 188.340 393.319,189.205 393.526,191.844 392.579 C 193.506 391.983,194.982 391.733,196.916 391.721 C 200.100 391.700,209.238 392.385,210.394 392.731 C 210.830 392.862,212.270 392.705,213.594 392.384 C 215.130 392.011,217.286 391.820,219.556 391.856 C 228.597 391.998,229.077 391.658,230.417 384.155 C 234.088 363.596,240.882 346.503,251.748 330.489 C 255.789 324.533,260.382 322.070,263.416 324.230 C 269.399 328.491,276.533 351.852,279.098 375.584 C 280.044 384.337,282.213 390.044,284.592 390.044 C 287.021 390.044,287.910 387.985,287.162 384.090 C 286.871 382.574,286.542 378.613,286.432 375.289 C 286.318 371.849,285.850 366.587,285.345 363.076 C 284.566 357.654,284.509 356.613,284.876 354.474 C 286.368 345.773,283.977 334.691,278.054 322.864 C 273.286 313.342,271.736 311.107,267.341 307.426 C 266.746 306.928,266.019 299.783,266.486 299.028 C 266.759 298.585,267.845 299.129,271.742 301.660 C 280.944 307.636,294.342 311.897,306.614 312.750 C 315.355 313.358,322.988 309.472,326.250 302.756 C 329.758 295.529,323.694 279.289,312.651 266.338 C 309.766 262.955,309.375 263.853,317.100 256.125 C 329.130 244.089,333.805 237.032,345.621 213.069 C 357.369 189.244,359.673 154.281,350.675 136.368 C 344.404 123.881,340.119 116.535,333.559 107.022 C 326.839 97.277,323.379 93.160,318.222 88.769 C 316.364 87.187,310.924 82.040,306.133 77.330 C 295.106 66.491,290.903 63.553,277.333 57.203 C 258.384 48.335,233.316 43.759,211.556 45.196 M229.193 46.582 C 251.554 48.339,271.130 54.290,288.631 64.650 C 295.189 68.532,300.661 73.396,320.898 93.333 C 326.661 99.010,337.011 113.489,342.002 122.854 C 343.250 125.195,345.277 128.951,346.507 131.200 C 355.380 147.420,357.026 161.286,352.860 184.711 C 350.368 198.723,348.954 203.280,343.977 213.346 C 331.951 237.670,326.035 246.274,312.956 258.458 C 307.797 263.264,307.872 262.892,311.287 266.844 C 316.961 273.412,321.678 281.465,324.308 289.078 C 327.602 298.614,325.976 304.160,318.462 309.023 C 309.909 314.559,286.098 309.766,270.756 299.420 C 265.001 295.540,264.305 295.643,264.903 300.284 C 265.078 301.643,265.226 304.060,265.233 305.654 L 265.244 308.553 266.327 308.930 C 271.111 310.598,281.511 330.010,283.020 340.089 C 283.703 344.649,283.939 351.105,283.529 354.020 C 283.191 356.429,283.251 357.583,283.975 362.667 C 284.457 366.046,284.892 371.171,285.000 374.756 C 285.103 378.181,285.443 382.289,285.757 383.894 C 286.506 387.732,285.570 389.607,283.618 388.178 C 282.769 387.557,281.009 380.241,280.346 374.578 C 277.040 346.329,269.359 324.283,262.062 322.097 C 252.607 319.264,234.854 352.131,229.330 382.695 C 228.058 389.733,227.578 390.582,225.378 389.671 C 222.623 388.529,222.377 385.574,224.242 376.000 C 227.626 358.616,235.235 341.137,245.515 327.131 C 249.081 322.274,247.489 322.362,242.402 327.303 C 235.338 334.163,229.510 346.801,224.862 365.333 C 221.178 380.020,217.107 382.633,203.842 378.822 C 202.120 378.328,199.467 377.343,197.945 376.634 C 196.282 375.859,195.055 375.475,194.867 375.672 C 194.414 376.148,193.788 380.658,193.542 385.208 C 193.312 389.486,192.989 390.216,190.827 391.341 C 189.530 392.016,188.574 391.682,187.862 390.305 C 186.536 387.741,188.150 375.286,190.607 369.125 C 191.180 367.690,192.041 364.970,192.522 363.080 C 193.003 361.190,193.802 358.456,194.298 357.004 C 195.500 353.487,195.549 353.674,192.711 350.957 L 190.222 348.575 190.222 346.541 C 190.222 344.406,193.798 336.637,196.219 333.511 C 196.750 332.827,197.949 331.025,198.886 329.508 C 199.822 327.990,201.936 325.061,203.583 322.998 C 206.905 318.838,207.057 318.320,205.571 316.248 C 204.219 314.361,204.022 313.788,201.987 305.772 C 198.833 293.356,198.334 292.497,194.042 292.100 C 192.626 291.969,188.747 291.556,185.422 291.183 C 182.098 290.810,176.418 290.257,172.800 289.954 C 156.071 288.556,153.754 288.187,145.778 285.647 C 142.942 284.745,138.208 283.318,135.256 282.477 C 117.893 277.529,107.711 272.468,100.598 265.249 C 87.096 251.546,80.349 238.997,79.470 225.956 C 79.080 220.171,78.648 219.386,75.840 219.373 C 70.631 219.348,63.486 214.368,60.745 208.853 C 55.729 198.759,61.944 180.937,71.741 177.323 C 79.595 174.425,90.601 177.920,95.582 184.893 C 98.746 189.322,99.033 189.007,100.446 179.556 C 104.730 150.895,108.736 137.248,116.245 125.722 C 119.769 120.314,119.961 119.648,118.578 117.613 C 116.598 114.699,118.065 108.846,122.486 102.012 C 129.703 90.855,142.658 75.621,150.432 69.149 C 169.762 53.057,200.285 44.311,229.193 46.582 M134.030 93.611 C 133.266 94.215,129.566 98.916,128.701 100.382 C 127.689 102.096,128.040 102.589,131.512 104.338 C 136.481 106.840,143.220 110.820,146.844 113.393 C 148.702 114.711,151.262 116.480,152.533 117.324 C 153.804 118.167,155.746 119.630,156.848 120.574 C 160.372 123.591,161.535 123.601,162.518 120.621 C 165.255 112.331,154.313 99.812,140.193 95.076 C 138.669 94.565,136.990 93.924,136.462 93.651 C 135.299 93.051,134.750 93.042,134.030 93.611 M138.554 96.049 C 147.182 98.807,157.415 106.415,160.180 112.128 C 161.532 114.922,161.860 119.204,160.819 120.488 L 160.136 121.332 158.023 119.611 C 156.060 118.011,149.545 113.407,144.506 110.058 C 143.318 109.268,139.604 107.102,136.253 105.244 C 132.261 103.031,130.156 101.665,130.147 101.281 C 130.129 100.505,134.345 94.993,134.999 94.939 C 135.034 94.936,136.634 95.435,138.554 96.049 M126.230 118.503 C 125.410 118.916,123.058 122.634,117.662 132.046 C 115.591 135.660,113.441 141.814,111.315 150.222 C 109.375 157.894,106.760 173.540,105.253 186.489 C 103.903 198.082,102.873 201.049,99.151 204.053 C 97.527 205.363,96.755 206.379,95.269 209.160 C 92.938 213.524,91.245 215.453,88.172 217.248 C 84.991 219.106,84.748 219.772,85.305 225.099 C 86.565 237.134,91.865 246.847,104.173 259.678 C 111.025 266.822,119.540 271.023,137.821 276.276 C 141.317 277.281,145.858 278.644,147.911 279.305 C 154.695 281.489,158.249 282.023,173.867 283.208 C 177.876 283.511,184.361 284.154,188.278 284.636 C 192.195 285.117,196.115 285.515,196.989 285.519 C 202.460 285.546,205.109 290.042,209.027 305.956 C 211.082 314.300,210.790 314.023,214.904 311.517 C 222.225 307.057,237.296 301.204,244.765 299.919 C 249.508 299.104,249.456 299.209,247.494 294.424 C 244.894 288.081,244.178 284.361,245.292 282.986 C 246.421 281.591,247.575 282.446,248.545 285.398 C 250.313 290.780,250.699 291.057,255.265 290.211 C 259.667 289.396,259.801 289.169,257.953 285.667 C 256.083 282.123,255.471 281.557,252.449 280.584 C 245.333 278.293,246.523 274.203,253.826 275.850 C 280.536 281.873,305.035 250.690,291.613 227.751 C 283.429 213.763,262.929 215.428,252.622 230.919 L 250.601 233.956 248.883 233.956 C 247.602 233.956,246.910 234.168,246.161 234.792 C 241.680 238.519,241.268 236.463,243.343 220.699 C 244.113 214.842,244.818 215.962,231.332 201.604 C 199.001 167.183,175.145 146.783,147.695 130.085 C 126.103 116.951,127.653 117.788,126.230 118.503 M133.950 123.444 C 137.229 125.436,143.552 129.273,148.001 131.969 C 174.481 148.017,199.147 169.290,232.053 204.457 C 243.458 216.646,242.525 214.648,241.427 224.533 C 240.313 234.562,240.310 235.794,241.399 236.953 C 242.575 238.205,244.114 238.156,245.892 236.810 C 246.931 236.024,247.682 235.751,248.823 235.743 C 251.024 235.729,251.386 235.434,253.980 231.538 C 262.827 218.248,280.888 215.543,288.886 226.311 C 297.015 237.254,295.627 250.187,284.850 263.943 C 278.365 272.219,264.876 276.839,254.214 274.435 C 249.145 273.292,246.400 274.196,246.400 277.009 C 246.400 279.313,247.511 280.371,251.235 281.612 L 254.619 282.739 255.915 285.357 C 257.347 288.251,257.342 288.284,255.406 288.734 C 251.616 289.613,251.317 289.406,249.778 284.829 C 248.695 281.611,248.095 280.889,246.499 280.889 C 242.390 280.889,242.241 285.531,246.053 294.776 C 247.339 297.894,247.438 297.771,242.813 298.835 C 234.492 300.749,220.977 306.089,214.679 309.951 C 211.956 311.621,211.906 311.573,210.525 305.911 C 206.196 288.171,203.758 284.528,195.837 283.955 C 194.133 283.832,190.213 283.416,187.125 283.030 C 184.038 282.644,178.151 282.078,174.044 281.773 C 158.568 280.621,155.434 280.148,148.089 277.859 C 145.351 277.005,140.568 275.570,137.460 274.669 C 116.638 268.635,110.044 264.845,100.515 253.428 C 91.142 242.200,87.715 235.145,86.761 225.110 C 86.314 220.422,86.445 219.940,88.485 218.770 C 92.402 216.523,94.262 214.424,96.688 209.513 C 97.785 207.291,98.466 206.394,99.802 205.412 C 104.122 202.236,105.059 199.574,106.837 185.422 C 111.302 149.897,114.528 138.933,125.746 121.156 C 126.930 119.280,127.241 119.367,133.950 123.444 M138.055 172.412 C 132.034 176.201,129.769 199.252,135.012 203.376 C 137.275 205.156,140.051 204.424,142.273 201.460 C 146.414 195.938,148.253 178.687,145.198 174.024 C 143.886 172.022,140.051 171.156,138.055 172.412 M143.049 173.929 C 147.189 176.144,145.077 196.938,140.235 201.630 C 135.383 206.333,132.162 197.320,134.169 184.655 C 135.668 175.195,138.661 171.580,143.049 173.929 M275.022 231.353 C 265.922 233.389,258.511 242.523,257.543 252.895 C 257.055 258.122,260.566 261.352,263.788 258.641 C 264.943 257.669,265.153 257.061,266.111 251.911 C 267.463 244.652,271.990 245.823,271.998 253.434 C 272.003 258.053,275.240 260.431,278.031 257.867 C 281.302 254.861,279.806 246.997,275.080 242.353 C 272.626 239.941,272.653 239.536,275.341 238.417 C 276.813 237.804,277.142 237.779,278.149 238.201 C 281.618 239.657,283.719 238.688,283.258 235.843 C 282.752 232.728,278.714 230.526,275.022 231.353 M279.854 233.438 C 281.224 234.147,282.108 235.851,281.598 236.803 C 281.155 237.631,280.352 237.687,279.111 236.978 C 277.798 236.227,276.327 236.341,274.134 237.361 C 270.409 239.095,269.958 240.356,272.444 242.081 C 277.489 245.580,280.099 253.622,277.148 256.573 C 275.153 258.569,273.768 257.197,273.410 252.868 C 273.083 248.928,272.067 246.850,269.982 245.861 C 267.127 244.506,265.503 246.575,264.382 252.997 C 263.584 257.570,262.303 258.992,260.313 257.515 C 257.594 255.497,259.310 247.348,263.899 240.487 C 267.916 234.481,275.441 231.157,279.854 233.438 M135.957 240.457 C 135.542 240.695,134.354 241.822,133.317 242.962 C 131.053 245.452,128.325 247.357,124.162 249.357 L 121.067 250.844 115.614 250.844 C 110.312 250.844,110.142 250.868,109.480 251.684 C 105.986 255.995,115.753 259.633,123.911 257.059 C 131.912 254.535,139.555 248.632,140.586 244.181 C 141.224 241.430,138.327 239.100,135.957 240.457 M138.596 242.204 C 141.367 244.976,132.621 252.786,123.556 255.634 C 117.221 257.625,108.505 255.548,110.931 252.626 C 111.254 252.236,112.232 252.176,115.669 252.336 C 122.358 252.648,128.039 250.202,133.800 244.533 C 136.589 241.788,137.659 241.268,138.596 242.204 M255.219 293.705 C 252.327 294.193,251.917 296.159,254.246 298.374 C 256.946 300.943,255.621 302.114,248.701 303.275 C 240.411 304.666,224.004 311.053,217.547 315.401 C 214.695 317.322,211.604 320.462,207.220 325.892 C 202.168 332.149,202.158 332.239,206.347 334.186 C 210.067 335.915,212.436 337.820,215.006 341.149 C 217.885 344.878,218.388 344.803,220.898 340.267 C 223.743 335.126,231.239 327.230,238.285 321.954 C 242.817 318.559,255.153 311.328,257.454 310.717 C 260.759 309.839,263.664 312.645,261.527 314.651 C 260.229 315.871,260.364 316.441,261.956 316.460 C 262.689 316.469,263.929 316.706,264.711 316.988 C 267.163 317.871,267.181 317.786,265.231 314.553 C 263.835 312.238,263.808 312.131,264.240 310.689 C 264.511 309.782,264.551 309.161,264.342 309.090 C 261.711 308.203,261.236 307.124,260.613 300.633 C 260.001 294.259,259.064 293.055,255.219 293.705 M257.929 295.556 C 258.740 296.275,258.870 296.766,259.220 300.444 C 259.570 304.125,259.975 306.681,260.465 308.305 C 260.605 308.766,260.266 308.915,258.723 309.074 C 256.535 309.300,254.988 310.030,247.898 314.179 C 234.957 321.752,225.130 330.550,219.893 339.250 C 218.020 342.363,218.249 342.400,214.252 338.329 C 211.276 335.296,210.200 334.453,207.919 333.361 C 204.755 331.848,204.551 331.632,205.262 330.548 C 207.098 327.746,214.109 319.841,216.448 317.936 C 222.195 313.254,240.266 305.882,249.334 304.520 C 254.285 303.776,256.369 302.797,257.106 300.869 C 257.422 300.044,256.670 297.956,256.058 297.956 C 255.555 297.956,254.222 296.518,254.222 295.975 C 254.222 294.733,256.687 294.454,257.929 295.556 M223.218 345.484 C 222.896 345.841,222.094 347.093,221.437 348.267 C 220.211 350.453,218.815 351.224,217.841 350.250 C 216.975 349.384,215.694 349.877,213.518 351.911 C 212.316 353.036,210.803 354.356,210.156 354.846 C 207.467 356.882,207.519 370.896,210.220 372.191 C 214.439 374.214,216.463 372.645,218.153 366.041 C 218.854 363.305,220.470 357.588,221.744 353.336 C 224.068 345.581,224.315 344.268,223.218 345.484 M218.311 352.132 C 220.361 352.742,220.418 353.162,219.059 357.578 C 218.468 359.497,217.654 362.507,217.250 364.267 C 215.687 371.065,215.104 371.897,212.270 371.371 C 209.838 370.920,209.775 370.731,209.803 363.945 C 209.833 356.649,209.672 357.116,213.176 354.116 C 216.345 351.401,216.133 351.483,218.311 352.132 M25.282 354.340 C 14.507 357.238,10.753 370.194,18.338 378.303 C 26.480 387.007,40.878 382.474,43.103 370.505 C 44.926 360.706,35.021 351.721,25.282 354.340 M32.380 356.113 C 44.311 359.556,44.581 376.752,32.763 380.449 C 21.025 384.120,11.444 371.225,18.339 361.036 C 21.328 356.618,27.108 354.592,32.380 356.113 M27.390 361.718 C 25.095 362.492,24.033 365.036,24.930 367.608 C 25.306 368.688,25.253 368.813,23.863 370.096 C 22.029 371.789,21.759 373.641,23.171 374.844 C 24.027 375.574,32.900 375.771,34.174 375.089 C 35.973 374.127,35.683 371.760,33.541 369.913 C 32.318 368.859,32.274 368.745,32.660 367.638 C 34.001 363.790,31.055 360.481,27.390 361.718 M30.352 363.759 C 32.027 365.076,30.887 368.711,28.800 368.711 C 27.819 368.711,26.311 366.855,26.311 365.648 C 26.311 364.412,27.628 363.022,28.800 363.022 C 29.138 363.022,29.837 363.354,30.352 363.759 M31.898 371.076 C 32.922 371.576,33.244 371.946,33.244 372.622 L 33.244 373.511 28.882 373.611 C 25.080 373.698,24.490 373.635,24.292 373.118 C 23.422 370.851,28.594 369.462,31.898 371.076 " stroke="none" fill="#999896" fill-rule="evenodd"></path></g></svg>